<svg width="311" height="201" viewBox="0 0 341 231" fill="none" xmlns="http://www.w3.org/2000/svg">
<path d="M53.7407 41.5766C53.7407 41.5766 63.6074 20.6419 83.3409 23.9533C83.3409 23.9533 89.7945 14.785 101.957 15.5659C114.12 16.3468 115.609 26.8893 115.609 26.8893C115.609 26.8893 129.173 20.4917 138.392 26.5363C153.348 36.3505 148.711 42.6729 144.323 41.9896L53.7407 41.5766Z" fill="#F5F5F5"/>
<path d="M292.315 77.7996C292.315 77.7996 284.842 61.9408 269.895 64.4488C269.895 64.4488 265.011 57.503 255.809 58.0962C246.607 58.6894 245.508 66.6789 245.508 66.6789C245.508 66.6789 235.242 61.8282 228.257 66.4086C216.927 73.8424 220.438 78.633 223.762 78.1149L292.315 77.7996Z" fill="#F5F5F5"/>
<path d="M31.5339 246.013C31.5339 246.013 34.0516 226.13 52.6414 224.861C52.6414 224.861 57.6679 189.126 87.3123 197.634C87.3123 197.634 89.3247 166.562 104.9 163.161C120.476 159.759 128.49 180.521 128.49 180.521C128.49 180.521 155.271 167.125 162.434 195.021C162.434 195.021 200.456 178.704 195.137 225.417C195.137 225.417 220.987 217.352 220.473 246.013H31.5339Z" fill="#EBEBEB"/>
<path d="M410.307 245.826C410.307 245.826 402.524 231.176 384.253 233.962C384.253 233.962 386.585 203.814 372.197 199.203C357.809 194.593 337.978 202.492 337.978 202.492C337.978 202.492 335.646 188.33 327.092 188C318.537 187.67 313.883 201.839 313.883 201.839C313.883 201.839 293.334 162.642 266.083 172.554C238.832 182.466 237.21 228.27 237.21 228.27C237.21 228.27 226.465 210.136 217.37 216.879C208.275 223.622 208.213 245.983 208.213 245.983L410.307 245.826Z" fill="#F5F5F5"/>
<path d="M60.9922 58.8621C60.9922 58.8621 70.3536 57.9085 74.9102 62.8869C74.9102 62.8869 73.8996 54.0865 76.9403 50.8727C76.9403 50.8727 73.1372 52.84 72.6319 58.8471C70.8419 58.0331 68.8414 57.6084 66.8098 57.611C64.7782 57.6137 62.7792 58.0436 60.9922 58.8621Z" fill="#E0E0E0"/>
<path d="M54.9995 74.751C54.9995 74.751 64.3255 75.9299 67.1534 81.7568C67.1534 81.7568 68.9264 73.039 72.8536 70.6361C72.8536 70.6361 68.5806 71.6798 66.2226 77.3941C64.7569 76.2003 62.964 75.3338 61.005 74.8724C59.046 74.411 56.9823 74.3693 54.9995 74.751Z" fill="#E0E0E0"/>
<path d="M332.225 130.872L299.761 210.632L311.25 200.652L314.184 211.871L322.526 200.652L327.819 211.69L336.781 200.652L342.508 212.374L350.185 200.652L357.366 211.968L365.353 200.555L370.769 212.021L378.163 201.824L383.65 213.515L390.308 201.538L402.488 210.144L370.574 116.973L332.225 130.872Z" fill="#EBEBEB"/>
<path d="M353.137 63.8705L313.156 166.397L324.743 156.342L325.762 167.17L333.395 156.568L339.858 167.17L345.442 155.239L351.24 166.99L360.238 155.156L365.85 167.17L372.303 155.051L377.223 164.82L382.152 155.051L392.241 164.347L353.137 63.8705Z" fill="#F5F5F5"/>
<path d="M353.182 47.1934L331.241 106.836L338.404 101.963L341.568 106.836L345.141 103.435L350.965 108.113L356.169 103.548L362.711 108.331L365.132 103.855L368.199 107.497L371.798 103.435L376.071 105.928L353.182 47.1934Z" fill="#FAFAFA"/>
<path d="M168.125 75.8397C168.125 75.8397 171.973 98.3664 180.137 104.659C180.137 104.659 192.903 104.659 203.62 100.153L212.547 99.2899L210.774 90.2793L200.562 96.0461C200.562 96.0461 189.038 97.1349 182.894 97.3526C182.894 97.3526 175.297 77.8296 174.534 69.4346L168.125 75.8397Z" fill="#CE7A63"/>
<path d="M141.255 78.2425C140.856 84.3097 139.021 99.2673 129.917 98.3212C121.14 97.4202 107.063 87.163 106.097 86.4497C107.169 84.9479 108.401 83.1383 109.643 81.4488C120.954 87.3583 128.206 89.1754 128.206 89.1754L130.493 77.1612C130.493 77.1612 141.663 72.1828 141.255 78.2425Z" fill="#CE7A63"/>
<path d="M204.808 225.101L195.677 230.846C195.677 230.846 170.332 201.884 163.542 191.401C156.751 180.919 154.411 136.812 154.411 136.812C154.198 138.028 153.994 143.57 153.79 149.787C153.542 158.16 153.311 167.808 153.099 170.151C150.634 198.099 151.751 248.814 151.751 248.814H141.113C137.284 235.831 132.248 185.65 131.69 173.665C131.131 161.681 138.241 110.748 138.241 110.748H169.783C178.922 128.229 171.848 161.689 176.875 175.167C181.901 188.646 204.808 225.101 204.808 225.101Z" fill="#FF9B21"/>
<path d="M139.456 48.62C139.456 48.62 133.596 42.3576 139.784 37.3567C139.784 37.3567 139.864 31.8677 145.103 31.4172C150.342 30.9666 154.854 34.278 160.093 34.4207C166.157 34.5484 167.806 41.7644 163.568 42.2149C159.331 42.6655 152.044 54.492 148.392 54.7247C144.739 54.9575 139.456 48.62 139.456 48.62Z" fill="#263238"/>
<path d="M211.271 234.592L205.004 238.887L200.554 233.819L199.224 232.31L202.628 229.419L204.809 227.564L205.234 228.022L207.557 230.553L211.271 234.592Z" fill="#CE7A63"/>
<path d="M143.747 62.5114L132.923 63.5251C133.074 71.2102 133.713 78.8828 134.837 86.5098C136.61 97.4652 138.162 110.756 138.162 110.756H169.703C169.508 114.135 170.155 92.8022 171.343 83.0932L182.274 81.629C182.274 81.629 180.022 66.889 174.145 66.0556C168.267 65.2221 156.291 60.1836 143.747 62.5114Z" fill="#263238"/>
<path d="M134.882 84.4448L134.642 84.2871L133.055 83.2659L123.428 77.0711C125.476 63.5551 132.887 63.5551 132.958 63.5551L134.217 77.2738L134.882 84.4448Z" fill="#263238"/>
<path d="M165.297 49.4384C164.251 55.7384 160.412 56.722 156.228 57.8033C156.228 57.8033 156.228 58.4791 156.334 59.3652C156.521 60.7919 156.99 62.7892 158.205 63.5176C158.205 63.5176 156.928 68.1506 149.482 67.7526C142.035 67.3546 142.62 63.7128 142.62 63.7128C142.62 63.7128 146.929 61.355 147.274 58.2013C147.451 56.1152 147.214 54.0189 146.574 51.999C146.574 51.999 140.865 49.3408 142.611 46.4799C144.358 43.619 147.93 46.6752 147.93 46.6752L148.516 36.831C148.516 36.831 159.677 35.3292 163.169 38.4079C165.169 41.8207 165.91 45.664 165.297 49.4384Z" fill="#CE7A63"/>
<path d="M156.689 46.0744C156.689 46.5625 156.405 46.9529 156.051 46.9529C155.696 46.9529 155.404 46.5625 155.404 46.0744C155.404 45.5863 155.687 45.1884 156.051 45.1884C156.414 45.1884 156.689 45.5863 156.689 46.0744Z" fill="#263238"/>
<path d="M163.143 46.0744C163.143 46.5625 162.85 46.9529 162.496 46.9529C162.141 46.9529 161.849 46.5625 161.849 46.0744C161.849 45.5863 162.141 45.1884 162.496 45.1884C162.85 45.1884 163.143 45.5863 163.143 46.0744Z" fill="#263238"/>
<path d="M159.189 45.7065V50.3095C160.066 50.3775 160.941 50.154 161.627 49.6862L159.189 45.7065Z" fill="#BA4D3C"/>
<path d="M152.78 50.3094C153.164 50.859 153.712 51.3134 154.368 51.627C155.025 51.9407 155.767 52.1026 156.521 52.0966" stroke="#263238" stroke-linecap="round" stroke-linejoin="round"/>
<path d="M152.868 42.733C153.16 42.3288 153.603 42.0194 154.127 41.8546C154.652 41.6898 155.226 41.6791 155.758 41.8244" stroke="#263238" stroke-linecap="round" stroke-linejoin="round"/>
<path d="M161.387 41.5166C161.877 41.5456 162.346 41.6944 162.738 41.945C163.13 42.1956 163.428 42.5372 163.595 42.9283" stroke="#263238" stroke-linecap="round" stroke-linejoin="round"/>
<path d="M148.552 36.831C148.552 36.831 152.842 41.8244 147.975 46.6826L146.539 41.7568L148.552 36.831Z" fill="#263238"/>
<path opacity="0.2" d="M134.642 84.2871L133.055 83.2659L134.216 77.2438L134.642 84.2871Z" fill="black"/>
<path d="M148.551 36.8311C150.283 37.9467 152.381 38.5786 154.556 38.6391C156.73 38.6996 158.873 38.1859 160.687 37.169C160.687 37.169 162.017 33.9026 155.599 34.3306C149.181 34.7586 148.551 36.8311 148.551 36.8311Z" fill="#263238"/>
<path d="M141.459 33.0765C141.459 33.0765 145.67 28.4436 155.643 30.1631C163.622 31.5447 165.767 27.1595 168.24 28.1958C170.714 29.232 169.411 37.7846 162.079 36.4555C154.748 35.1265 141.459 33.0765 141.459 33.0765Z" fill="#263238"/>
<path d="M139.89 37.0487C139.476 36.6664 138.941 36.3925 138.349 36.2594C137.756 36.1264 137.132 36.1397 136.548 36.2978L139.89 37.3191L136.007 37.732C136.007 37.732 139.34 38.3553 140.316 37.8972C141.291 37.4392 139.89 37.0487 139.89 37.0487Z" fill="#263238"/>
<path d="M109.598 81.4488C109.598 81.4488 108.588 77.1312 103.792 76.1025L100.884 73.2416L96.354 76.4479L99.3149 83.311L106.097 86.4497L109.598 81.4488Z" fill="#CE7A63"/>
<path opacity="0.1" d="M156.335 59.3652C154.488 59.1688 152.77 58.4583 151.451 57.3453C153.013 57.6723 154.619 57.8263 156.229 57.8033C156.229 57.8033 156.229 58.4791 156.335 59.3652Z" fill="black"/>
<path opacity="0.2" d="M207.557 230.553L200.554 233.819L199.224 232.31L202.628 229.419L205.234 228.022L207.557 230.553Z" fill="black"/>
<path opacity="0.2" d="M204.808 225.101L195.677 230.846C195.677 230.846 170.332 201.884 163.542 191.401C156.751 180.919 154.411 136.812 154.411 136.812C154.198 138.028 153.994 143.57 153.79 149.787C153.542 158.16 153.311 167.808 153.099 170.151C150.634 198.099 151.751 248.814 151.751 248.814H141.113C137.284 235.831 132.248 185.65 131.69 173.665C131.131 161.681 138.241 110.748 138.241 110.748H169.783C178.922 128.229 171.848 161.689 176.875 175.167C181.901 188.646 204.808 225.101 204.808 225.101Z" fill="black"/>
<path d="M193.931 231.454L205.979 224.125L208.133 229.058L197.061 233.879L193.931 231.454Z" fill="#263238"/>
<path d="M210.766 90.2717C210.828 90.6021 218.381 92.9824 218.381 92.9824L217.858 97.4502L212.539 99.2824L210.766 90.2717Z" fill="#CE7A63"/>
<path opacity="0.2" d="M154.304 137.803C154.065 139.147 153.843 145.222 153.622 152.07C153.063 144.043 153.294 129.408 153.294 129.408L154.304 137.803Z" fill="black"/>
<path d="M310.709 252.373L298.005 253.522C298.005 253.522 277.616 197.514 272.731 183.69C267.847 169.866 265.382 140.416 265.382 140.416C264.895 141.602 264.141 143.84 263.166 146.874C255.143 172.028 232.706 252.351 232.706 252.351L222.502 248.972C222.502 248.972 228.619 187.114 231.474 175.385C234.328 163.656 252.954 107.903 252.954 107.903H286.64C286.64 107.903 289.903 167.771 292.757 181.369C295.612 194.968 310.709 252.373 310.709 252.373Z" fill="#263238"/>
<path d="M248.539 73.9024C248.539 73.9024 245.313 84.7002 240.384 93.2378C235.242 102.143 228.336 108.856 225.242 112.01L219.418 115.764L217.326 121.291L225.012 123.461C225.012 123.461 231.297 118.332 230.836 115.201L246.908 98.7268L255.693 78.8432L248.539 73.9024Z" fill="#FFB573"/>
<path d="M278.405 33.6473C281.162 34.9463 282.474 36.6509 284.611 38.6482C288.901 42.7605 293.959 46.2484 299.584 48.9729C303.608 50.8577 307.943 52.2093 312.066 53.9288C313.981 54.6115 315.664 55.6907 316.959 57.0675C317.789 58.2111 318.324 59.4907 318.528 60.8219C319.973 67.8202 317.642 75.5093 311.596 80.4502C309.67 82.0722 307.337 83.3044 304.77 84.0544C299.779 85.4361 294.371 84.505 289.159 83.9118C285.811 83.6332 282.484 83.1944 279.194 82.5977C275.888 81.994 272.839 80.639 270.374 78.6781C268.052 76.5826 266.558 73.9266 266.101 71.0791C265.657 68.2439 265.801 65.3648 266.526 62.5715C267.173 59.7857 268.184 57.045 268.494 54.2066C268.805 51.3683 268.352 48.3497 266.358 46.0595C265.259 44.798 261.854 43.8068 261.039 42.3952C259.266 39.339 262.218 35.3593 265.737 33.6773C267.686 32.7988 269.859 32.3369 272.067 32.3316C274.275 32.3264 276.451 32.7781 278.405 33.6473Z" fill="#263238"/>
<path d="M299.247 74.4055L288.236 80.9532L286.526 109.487C275.941 111.184 252.954 107.873 252.954 107.873L250.294 79.3388L248.725 78.3627L245.011 76.065C245.011 76.065 248.45 67.9253 250.445 66.1082C252.44 64.291 263.743 62.7442 263.743 62.7442C263.743 62.7442 285.018 64.5088 289.761 65.8454C294.504 67.182 299.247 74.4055 299.247 74.4055Z" fill="#FF9B21"/>
<path d="M295.621 76.5906L303.192 88.3045C303.192 88.3045 309.397 81.6441 312.58 78.1074L310.887 73.2642L313.812 67.3997L318.883 67.7977C319.986 69.6753 320.37 71.7974 319.982 73.8687C319.595 75.9399 318.454 77.8573 316.72 79.3539C316.72 79.3539 312.066 90.5496 303.573 94.7396C297.111 97.9308 289.841 80.0297 289.841 80.0297L295.621 76.5906Z" fill="#FFB573"/>
<path d="M276.189 51.6536C274.717 55.2053 272.714 61.8056 275.303 64.6214C275.303 64.6214 273.53 68.1881 265.462 67.197C256.598 66.1082 261.916 62.9619 261.916 62.9619C266.899 62.5865 267.298 59.5454 266.952 56.5944L276.189 51.6536Z" fill="#FFB573"/>
<path opacity="0.2" d="M272.413 53.6735L266.925 56.5644C267.024 57.2519 267.048 57.9457 266.996 58.6369C268.875 58.6369 271.695 57.2327 272.173 55.6333C272.395 54.9982 272.476 54.3337 272.413 53.6735Z" fill="black"/>
<path d="M279.008 42.673C278.857 48.8528 278.937 51.4659 275.4 54.7548C270.081 59.6956 261.216 58.1788 259.141 52.0741C257.368 46.5851 257.9 37.3942 264.921 34.7061C267.322 33.7766 270.06 33.6927 272.534 34.4728C275.007 35.2528 277.014 36.8331 278.112 38.866C278.764 40.0567 279.071 41.3618 279.008 42.673Z" fill="#FFB573"/>
<path d="M262.634 35.96C262.572 36.0802 271.26 46.9906 278.955 47.1333C280.879 45.3161 281.224 38.8735 278.591 37.214C275.959 35.5546 273.645 32.1681 270.719 32.4158C266.331 32.7838 262.634 35.96 262.634 35.96Z" fill="#263238"/>
<path d="M267.466 44.7079C267.466 45.211 267.191 45.6315 266.81 45.6466C266.429 45.6616 266.083 45.2561 266.048 44.783C266.012 44.31 266.323 43.8594 266.704 43.8444C267.085 43.8294 267.457 44.2124 267.466 44.7079Z" fill="#263238"/>
<path d="M260.773 44.9332C260.773 45.4363 260.499 45.8492 260.117 45.8568C259.736 45.8643 259.39 45.4738 259.355 44.9932C259.319 44.5127 259.63 44.0772 260.02 44.0621C260.41 44.0471 260.756 44.4301 260.773 44.9332Z" fill="#263238"/>
<path d="M260.205 44.0621L258.76 43.7618C258.76 43.7618 259.54 44.6779 260.205 44.0621Z" fill="#263238"/>
<path d="M262.883 45.8043C262.403 46.9653 261.741 48.0664 260.915 49.0781C261.226 49.249 261.577 49.3609 261.944 49.4062C262.312 49.4516 262.686 49.4293 263.042 49.3409L262.883 45.8043Z" fill="#ED893E"/>
<path d="M266.358 51.1655C266.065 51.2119 265.769 51.2396 265.471 51.2481C265.427 51.2483 265.385 51.2346 265.352 51.2096C265.319 51.1846 265.298 51.1501 265.294 51.113C265.294 51.0736 265.311 51.0356 265.342 51.0064C265.373 50.9773 265.416 50.959 265.463 50.9553C266.201 50.9467 266.927 50.7898 267.581 50.4974C268.234 50.205 268.796 49.7855 269.221 49.2733C269.247 49.2411 269.286 49.2185 269.33 49.2101C269.375 49.2017 269.422 49.2082 269.461 49.2282C269.48 49.2374 269.497 49.25 269.51 49.2651C269.524 49.2802 269.533 49.2975 269.538 49.3159C269.543 49.3342 269.544 49.3533 269.54 49.3719C269.535 49.3904 269.527 49.408 269.514 49.4235C269.153 49.8789 268.688 50.268 268.146 50.5674C267.603 50.8667 266.995 51.0702 266.358 51.1655Z" fill="#263238"/>
<path d="M281.242 48.2821C281.023 48.8443 280.676 49.3645 280.22 49.8128C279.763 50.2612 279.207 50.629 278.583 50.8952C276.898 51.5935 275.711 50.3921 275.923 48.9053C276.083 47.5613 277.156 45.5714 278.973 45.4963C279.372 45.4835 279.768 45.5558 280.125 45.7064C280.483 45.8571 280.79 46.0813 281.018 46.3585C281.247 46.6358 281.39 46.9572 281.433 47.2933C281.477 47.6293 281.421 47.9693 281.269 48.2821H281.242Z" fill="#FFB573"/>
<path d="M270.117 43.4689C270.043 43.4793 269.967 43.4706 269.898 43.4438C269.83 43.417 269.774 43.3734 269.735 43.3188C268.955 42.1248 266.899 41.9296 266.872 41.9221C266.781 41.9109 266.699 41.8702 266.642 41.8085C266.586 41.7469 266.56 41.6691 266.571 41.5917C266.575 41.5532 266.588 41.5158 266.61 41.4816C266.632 41.4475 266.661 41.4174 266.696 41.3929C266.732 41.3685 266.773 41.3502 266.816 41.3393C266.86 41.3283 266.906 41.3247 266.952 41.3289C267.049 41.3289 269.398 41.5692 270.347 43.0334C270.392 43.1002 270.405 43.1795 270.381 43.254C270.358 43.3285 270.301 43.3922 270.223 43.4314L270.117 43.4689Z" fill="#263238"/>
<path d="M258.646 42.3726C258.586 42.384 258.523 42.3809 258.465 42.3637C258.407 42.3464 258.356 42.3157 258.318 42.275C258.263 42.216 258.238 42.1413 258.248 42.0668C258.258 41.9923 258.302 41.9242 258.371 41.877C258.772 41.5512 259.261 41.3127 259.795 41.1819C260.329 41.0511 260.893 41.032 261.438 41.1261C261.524 41.1472 261.597 41.1958 261.642 41.2616C261.687 41.3275 261.699 41.4054 261.677 41.4791C261.666 41.5167 261.646 41.552 261.618 41.583C261.591 41.614 261.556 41.6401 261.517 41.6596C261.477 41.6792 261.433 41.6919 261.388 41.697C261.342 41.7021 261.296 41.6995 261.252 41.6893C260.823 41.6133 260.378 41.6284 259.957 41.7332C259.536 41.838 259.153 42.0293 258.841 42.29C258.787 42.3342 258.719 42.3631 258.646 42.3726Z" fill="#263238"/>
<path d="M266.908 43.8444L265.463 43.544C265.463 43.544 266.243 44.4601 266.908 43.8444Z" fill="#263238"/>
<path opacity="0.2" d="M265.383 131.736V140.416C264.895 141.602 264.142 143.84 263.166 146.874L265.383 131.736Z" fill="black"/>
<path d="M287.412 106.288L286.526 109.51C284.379 109.809 282.211 109.984 280.036 110.035H279.15C277.279 110.08 275.072 110.08 272.546 109.99H271.659C269.319 109.885 266.721 109.705 263.885 109.412L262.998 109.322C261.323 109.142 259.576 108.924 257.741 108.661L256.855 108.533C255.587 108.338 254.284 108.128 252.945 107.895L252.653 104.681L257.032 104.884H257.918L263.193 105.132L264.08 105.169L271.854 105.53L272.741 105.575L279.336 105.875L280.223 105.92L287.412 106.288Z" fill="white"/>
<path d="M257.919 104.922L257.732 108.676L256.846 108.548L257.023 104.899L257.919 104.922Z" fill="#FF9B21"/>
<path d="M264.125 105.207L263.912 109.412L263.025 109.322L263.229 105.169L264.125 105.207Z" fill="#FF9B21"/>
<path d="M272.75 105.612L272.537 110.02H271.651L271.863 105.597L272.75 105.612Z" fill="#FF9B21"/>
<path d="M280.232 105.958L280.037 110.035H279.15L279.354 105.883L280.232 105.958Z" fill="#FF9B21"/>
</svg>
