<svg width="239" height="205" viewBox="0 0 239 205" fill="none" xmlns="http://www.w3.org/2000/svg">
<path d="M152.886 1.99575C193.933 5.2855 237.262 10.6383 265.167 40.9559C294.07 72.357 304.803 117.543 298.048 159.706C291.692 199.37 262.583 229.447 230.995 254.217C200.713 277.962 165.558 296.789 127.221 293.659C88.6691 290.511 54.5712 268.172 30.5146 237.847C7.10119 208.332 -1.06087 171.097 0.108489 133.424C1.36416 92.9704 6.53234 49.0609 37.1932 22.6846C68.0821 -3.8877 112.292 -1.25778 152.886 1.99575Z" fill="#7ED5B3"/>
<path d="M185.098 25.2407C212.377 24.8119 241.2 23.3744 263.809 38.6601C287.313 54.5505 302.854 80.8526 308.505 108.675C313.944 135.452 303.494 161.696 294.003 187.317C284.448 213.109 275.538 240.369 253.588 256.92C230.865 274.053 201.473 281.153 173.155 278.437C145.658 275.8 122.365 259.596 100.837 242.269C79.3462 224.971 58.6792 205.661 50.132 179.415C41.3268 152.377 41.686 122.208 53.2842 96.2473C64.5156 71.1074 87.7233 54.0972 111.949 41.0469C134.466 28.9174 159.531 25.6426 185.098 25.2407Z" fill="#0071FF" fill-opacity="0.69"/>
</svg>
