<svg width="199" height="186" viewBox="0 0 199 186" fill="none" xmlns="http://www.w3.org/2000/svg">
<path fill-rule="evenodd" clip-rule="evenodd" d="M160.605 103.556C157.07 120.149 150.689 138.472 135.194 145.404C119.754 152.312 102.7 143.176 87.1896 136.401C72.8834 130.152 57.2639 123.377 51.5391 108.864C45.9899 94.7965 51.5541 78.8772 59.4029 65.9597C65.9045 55.2593 77.9056 50.5427 89.6412 46.1558C100.226 42.199 111.114 39.7066 122.06 42.5379C134.374 45.7231 146.067 51.758 152.858 62.5073C160.592 74.7509 163.621 89.4028 160.605 103.556Z" fill="#CCFF00"/>
<path d="M36.3867 86.8078L94.37 71.3857C95.8773 70.9895 97.4802 71.206 98.8285 71.9877C100.177 72.7695 101.161 74.053 101.566 75.558L109.131 104C109.527 105.508 109.311 107.111 108.529 108.46C107.748 109.809 106.465 110.794 104.96 111.2L84.8945 116.537L78.3406 127.84L67.0372 121.286L46.9763 126.622C45.4678 127.019 43.8638 126.802 42.5145 126.02C41.1652 125.237 40.1803 123.953 39.775 122.447L32.2102 94.0049C31.8138 92.4969 32.0307 90.8932 32.8133 89.5446C33.5959 88.1959 34.8807 87.212 36.3867 86.8078Z" fill="#407BFF"/>
<path opacity="0.3" d="M36.3867 86.8078L94.37 71.3857C95.8773 70.9895 97.4802 71.206 98.8285 71.9877C100.177 72.7695 101.161 74.053 101.566 75.558L109.131 104C109.527 105.508 109.311 107.111 108.529 108.46C107.748 109.809 106.465 110.794 104.96 111.2L84.8945 116.537L78.3406 127.84L67.0372 121.286L46.9763 126.622C45.4678 127.019 43.8638 126.802 42.5145 126.02C41.1652 125.237 40.1803 123.953 39.775 122.447L32.2102 94.0049C31.8138 92.4969 32.0307 90.8932 32.8133 89.5446C33.5959 88.1959 34.8807 87.212 36.3867 86.8078Z" fill="#79A3FF"/>
<path d="M42.7245 95.6752L48.0703 115.774C48.2708 116.555 48.7724 117.225 49.4654 117.638C50.1585 118.05 50.9866 118.172 51.7689 117.976L96.5004 106.078C97.2768 105.86 97.9352 105.343 98.3317 104.641C98.7282 103.938 98.8306 103.108 98.6166 102.33L93.2708 82.2311C93.1692 81.8505 92.9974 81.4923 92.7642 81.1748C92.4074 80.6869 91.9126 80.3171 91.3437 80.113C90.7748 79.9089 90.1578 79.8799 89.5722 80.0296L44.8406 91.9271C44.2584 92.0876 43.7377 92.4192 43.346 92.8789C42.9543 93.3386 42.7096 93.9053 42.6435 94.5057C42.5947 94.8971 42.6222 95.2943 42.7245 95.6752Z" fill="white"/>
<path opacity="0.1" d="M42.6435 94.5055L66.7725 98.1714C67.9821 98.3563 69.2169 98.2894 70.3995 97.9749C71.582 97.6603 72.6869 97.1049 73.6448 96.3435L92.7642 81.1746C92.4074 80.6867 91.9126 80.3169 91.3437 80.1128C90.7748 79.9087 90.1577 79.8797 89.5722 80.0294L44.8406 91.9269C44.2584 92.0875 43.7377 92.419 43.346 92.8787C42.9543 93.3385 42.7096 93.9051 42.6435 94.5055Z" fill="black"/>
<path d="M85.32 68.9548C73.5533 73.928 58.5601 83.1113 46.1936 92.9169C38.1469 99.2966 24.37 111.401 22.5216 120.781C21.9709 123.6 22.5748 125.915 24.325 127.673C26.0751 129.431 29.2403 130.136 33.4226 130.078L33.3017 129.623C29.3071 129.673 26.2763 129.016 24.6419 127.369C23.0076 125.723 22.4319 123.525 22.9557 120.862C24.2853 114.108 32.8573 104.043 46.4859 93.2459C58.7977 83.4577 73.756 74.3105 85.4881 69.3524C85.5408 69.3301 85.5825 69.2878 85.604 69.2348C85.6256 69.1817 85.6251 69.1223 85.6028 69.0696C85.5805 69.0168 85.5382 68.9751 85.4852 68.9536C85.4321 68.9321 85.3727 68.9325 85.32 68.9548Z" fill="white"/>
<path d="M85.32 68.9548C73.5533 73.928 58.5601 83.1113 46.1936 92.9169C38.1469 99.2966 24.37 111.401 22.5216 120.781C21.9709 123.6 22.5748 125.915 24.325 127.673C26.0751 129.431 29.2403 130.136 33.4226 130.078L33.3017 129.623C29.3071 129.673 26.2763 129.016 24.6419 127.369C23.0076 125.723 22.4319 123.525 22.9557 120.862C24.2853 114.108 32.8573 104.043 46.4859 93.2459C58.7977 83.4577 73.756 74.3105 85.4881 69.3524C85.5408 69.3301 85.5825 69.2878 85.604 69.2348C85.6256 69.1817 85.6251 69.1223 85.6028 69.0696C85.5805 69.0168 85.5382 68.9751 85.4852 68.9536C85.4321 68.9321 85.3727 68.9325 85.32 68.9548Z" fill="#407BFF"/>
<path d="M24.5332 127.731C24.4966 127.741 24.4579 127.741 24.4213 127.73C24.3846 127.72 24.3514 127.701 24.325 127.673C22.5748 125.915 21.9694 123.594 22.5216 120.781C24.37 111.401 38.1469 99.2966 46.1936 92.9169C58.5601 83.1113 73.5533 73.928 85.32 68.9548C85.3727 68.9325 85.4321 68.9321 85.4852 68.9536C85.5382 68.9751 85.5805 69.0168 85.6028 69.0696C85.6251 69.1223 85.6256 69.1817 85.604 69.2348C85.5825 69.2878 85.5408 69.3301 85.4881 69.3524C73.7449 74.3135 58.8007 83.4688 46.461 93.2526C32.8462 104.046 24.2742 114.11 22.9557 120.862C22.4319 123.525 22.9998 125.716 24.6419 127.369C24.6799 127.41 24.7006 127.463 24.6999 127.519C24.6992 127.575 24.677 127.628 24.6381 127.667C24.6101 127.698 24.5737 127.72 24.5332 127.731Z" fill="#407BFF"/>
<g opacity="0.8">
<path d="M24.5332 127.731C24.4966 127.741 24.4579 127.741 24.4213 127.73C24.3846 127.72 24.3514 127.701 24.325 127.673C22.5748 125.915 21.9694 123.594 22.5216 120.781C24.37 111.401 38.1469 99.2966 46.1936 92.9169C58.5601 83.1113 73.5533 73.928 85.32 68.9548C85.3727 68.9325 85.4321 68.9321 85.4852 68.9536C85.5382 68.9751 85.5805 69.0168 85.6028 69.0696C85.6251 69.1223 85.6256 69.1817 85.604 69.2348C85.5825 69.2878 85.5408 69.3301 85.4881 69.3524C73.7449 74.3135 58.8007 83.4688 46.461 93.2526C32.8462 104.046 24.2742 114.11 22.9557 120.862C22.4319 123.525 22.9998 125.716 24.6419 127.369C24.6799 127.41 24.7006 127.463 24.6999 127.519C24.6992 127.575 24.677 127.628 24.6381 127.667C24.6101 127.698 24.5737 127.72 24.5332 127.731Z" fill="white"/>
</g>
<path d="M91.8154 70.371L101.934 60.9999L92.5331 67.1312L91.8154 70.371Z" fill="#407BFF"/>
<path opacity="0.3" d="M91.8154 70.371L101.934 60.9999L92.5331 67.1312L91.8154 70.371Z" fill="black"/>
<path d="M87.5627 65.5884L90.1417 66.5115L91.8154 70.3711L92.5331 67.1313L96.7643 68.0157L101.934 60.9999L87.5627 65.5884Z" fill="#407BFF"/>
<path opacity="0.6" d="M87.5627 65.5884L90.1417 66.5115L91.8154 70.3711L92.5331 67.1313L96.7643 68.0157L101.934 60.9999L87.5627 65.5884Z" fill="white"/>
<path opacity="0.2" d="M90.1417 66.5116L101.934 61L92.5331 67.1313L91.8154 70.3711L90.1417 66.5116Z" fill="black"/>
</svg>
