<svg width="251" height="269" viewBox="0 0 251 269" fill="none" xmlns="http://www.w3.org/2000/svg">
<path fill-rule="evenodd" clip-rule="evenodd" d="M107.317 19.4233C138.22 14.8605 170.624 21.0876 194.91 40.7192C221.692 62.3689 243.38 93.8485 241.931 128.239C240.517 161.795 212.576 185.955 187.832 208.687C164.518 230.107 138.966 250.689 107.317 251.91C74.6146 253.172 40.2088 241.129 20.3336 215.15C1.95813 191.132 8.37944 158.161 12.7025 128.239C16.2399 103.755 26.0419 81.9296 42.2791 63.2552C60.1078 42.7505 80.4246 23.394 107.317 19.4233Z" fill="#7ED5B3"/>
<path d="M229.99 5.82454L248.361 52.8009C249.076 54.6448 249.033 56.6964 248.24 58.5084C247.448 60.3203 245.972 61.7455 244.133 62.4731L137.238 104.333C135.392 105.049 133.338 105.005 131.525 104.21C129.712 103.414 128.288 101.933 127.565 100.09L109.202 53.1282C108.849 52.2384 108.676 51.2875 108.692 50.3304C108.711 48.8436 109.171 47.396 110.015 46.1718C110.859 44.9476 112.048 44.0022 113.431 43.456L220.348 1.59475C221.733 1.05618 223.247 0.942415 224.696 1.26798C226.146 1.59354 227.466 2.34367 228.487 3.42262C229.142 4.11619 229.653 4.93253 229.99 5.82454Z" fill="#C2F33A"/>
<path opacity="0.8" d="M229.99 5.82454L248.361 52.8009C249.076 54.6448 249.033 56.6964 248.24 58.5084C247.448 60.3203 245.972 61.7455 244.133 62.4731L137.238 104.333C135.392 105.049 133.338 105.005 131.525 104.21C129.712 103.414 128.288 101.933 127.565 100.09L109.202 53.1282C108.849 52.2384 108.676 51.2875 108.692 50.3304C108.711 48.8436 109.171 47.396 110.015 46.1718C110.859 44.9476 112.048 44.0022 113.431 43.456L220.348 1.59475C221.733 1.05618 223.247 0.942415 224.696 1.26798C226.146 1.59354 227.466 2.34367 228.487 3.42262C229.142 4.11619 229.653 4.93253 229.99 5.82454Z" fill="white"/>
<path opacity="0.6" d="M228.457 3.42416L185.388 45.6919C183.223 47.8146 180.651 49.4781 177.827 50.5828C175.004 51.6874 171.986 52.2103 168.955 52.1202L108.656 50.355C108.674 48.8683 109.134 47.4206 109.978 46.1964C110.822 44.9722 112.011 44.0268 113.394 43.4807L220.312 1.61942C221.695 1.07661 223.209 0.958387 224.66 1.27984C226.11 1.6013 227.432 2.34785 228.457 3.42416Z" fill="#C2F33A"/>
<path d="M105.362 53.71H128.255C132.85 53.7045 137.283 55.4081 140.692 58.4895C144.101 61.5709 146.242 65.8099 146.699 70.3823C146.699 70.3823 146.699 70.4719 146.699 70.5117C147.854 83.3717 147.694 109.331 146.699 122.171C146.699 122.688 146.599 123.325 146.51 124.032C145.974 128.496 143.82 132.609 140.456 135.591C137.092 138.574 132.751 140.219 128.255 140.217H96.1845C92.3605 140.242 88.6255 139.063 85.5083 136.848C82.3912 134.633 80.0497 131.494 78.8155 127.874C78.7163 127.594 78.6332 127.308 78.5666 127.018C77.0836 120.528 76.5759 106.723 78.5666 100.363C79.6814 96.819 85.9423 91.7128 87.0471 88.1694C88.7691 82.6949 84.8573 70.5216 87.0471 65.2164C87.7737 63.4646 90.3417 60.8268 92.87 58.5276C96.2856 55.4171 100.742 53.6984 105.362 53.71Z" fill="#C2F33A"/>
<path opacity="0.5" d="M105.362 53.71H128.255C132.85 53.7045 137.283 55.4081 140.692 58.4895C144.101 61.5709 146.242 65.8099 146.699 70.3823C146.699 70.3823 146.699 70.4719 146.699 70.5117C147.854 83.3717 147.694 109.331 146.699 122.171C146.699 122.688 146.599 123.325 146.51 124.032C145.974 128.496 143.82 132.609 140.456 135.591C137.092 138.574 132.751 140.219 128.255 140.217H96.1845C92.3605 140.242 88.6255 139.063 85.5083 136.848C82.3912 134.633 80.0497 131.494 78.8155 127.874C78.7163 127.594 78.6332 127.308 78.5666 127.018C77.0836 120.528 76.5759 106.723 78.5666 100.363C79.6814 96.819 85.9423 91.7128 87.0471 88.1694C88.7691 82.6949 84.8573 70.5216 87.0471 65.2164C87.7737 63.4646 90.3417 60.8268 92.87 58.5276C96.2856 55.4171 100.742 53.6984 105.362 53.71Z" fill="black"/>
<path d="M96.2144 57.6515C95.9315 57.2866 95.5755 56.9849 95.1692 56.7656C94.3563 57.2895 93.5873 57.8787 92.87 58.5274C90.3417 60.8267 87.7737 63.5042 87.0471 65.2162C84.8573 70.5215 88.7691 82.6947 87.0471 88.1692C85.9423 91.7127 79.6814 96.8189 78.5666 100.362C76.5759 106.723 77.0836 120.528 78.5666 127.018C78.6332 127.308 78.7163 127.594 78.8155 127.874C79.8762 131.01 81.7757 133.795 84.3079 135.927C86.8401 138.059 89.908 139.457 93.1785 139.968C93.8016 139.686 94.3735 139.303 94.8706 138.833C97.568 136.086 99.7379 62.7577 96.2144 57.6515Z" fill="#C2F33A"/>
<path opacity="0.2" d="M96.2144 57.6515C95.9315 57.2866 95.5755 56.9849 95.1692 56.7656C94.3563 57.2895 93.5873 57.8787 92.87 58.5274C90.3417 60.8267 87.7737 63.5042 87.0471 65.2162C84.8573 70.5215 88.7691 82.6947 87.0471 88.1692C85.9423 91.7127 79.6814 96.8189 78.5666 100.362C76.5759 106.723 77.0836 120.528 78.5666 127.018C78.6332 127.308 78.7163 127.594 78.8155 127.874C79.8762 131.01 81.7757 133.795 84.3079 135.927C86.8401 138.059 89.908 139.457 93.1785 139.968C93.8016 139.686 94.3735 139.303 94.8706 138.833C97.568 136.086 99.7379 62.7577 96.2144 57.6515Z" fill="white"/>
<path opacity="0.3" d="M88.1819 130.054L81.8414 126.968C81.246 126.681 80.7436 126.231 80.3916 125.672C80.0395 125.112 79.8521 124.464 79.8507 123.803V110.216C79.8507 109.285 80.2209 108.391 80.8798 107.732C81.5388 107.073 82.4325 106.703 83.3643 106.703H90.3318C90.8035 106.703 91.2704 106.797 91.7046 106.981C92.1389 107.165 92.5317 107.435 92.8595 107.774C93.1874 108.113 93.4437 108.514 93.6131 108.955C93.7825 109.395 93.8615 109.865 93.8455 110.336L93.2482 127.018C93.2316 127.606 93.067 128.181 92.7696 128.689C92.4722 129.197 92.0517 129.622 91.5469 129.924C91.042 130.227 90.4691 130.397 89.881 130.42C89.2929 130.443 88.7085 130.317 88.1819 130.054Z" fill="black"/>
<path d="M161.819 234.328L149.347 235.363L151.457 250.025L161.888 249.169L161.819 234.328Z" fill="#CE7A63"/>
<path d="M137.98 191.179C133.112 172.426 118.441 150.369 128.185 133.159L162.963 136.404C162.963 136.404 164.237 169.072 164.476 186.61C164.735 204.855 163.162 239.364 163.162 239.364L148.869 240.439C148.869 240.439 139.124 212.231 137.98 191.179Z" fill="#C2F33A"/>
<path opacity="0.3" d="M137.98 191.179C133.112 172.426 118.441 150.369 128.185 133.159L162.963 136.404C162.963 136.404 164.237 169.072 164.476 186.61C164.735 204.855 163.162 239.364 163.162 239.364L148.869 240.439C148.869 240.439 139.124 212.231 137.98 191.179Z" fill="black"/>
<path d="M148.162 240.967L163.6 239.832C163.732 239.823 163.856 239.766 163.949 239.673C164.042 239.58 164.099 239.456 164.108 239.325L164.436 233.591C164.441 233.512 164.429 233.433 164.4 233.359C164.37 233.285 164.325 233.218 164.267 233.164C164.209 233.11 164.139 233.069 164.064 233.045C163.988 233.021 163.908 233.014 163.829 233.024L146.689 235.303C146.612 235.313 146.537 235.34 146.471 235.381C146.405 235.422 146.349 235.478 146.306 235.543C146.263 235.608 146.236 235.682 146.224 235.759C146.213 235.837 146.219 235.915 146.241 235.99L147.605 240.579C147.637 240.699 147.711 240.803 147.813 240.875C147.915 240.946 148.038 240.978 148.162 240.967Z" fill="#C2F33A"/>
<path opacity="0.2" d="M128.315 149.772C128.184 154.205 128.363 158.642 128.852 163.05C130.564 168.953 132.744 174.855 134.695 180.588C137.263 164.364 137.273 145.452 128.315 149.772Z" fill="black"/>
<path d="M107.283 232.566L95.3783 228.674L90.6404 242.669L100.584 245.934L107.283 232.566Z" fill="#CE7A63"/>
<path d="M101.38 185.107C99.6881 166.146 93.4174 138.445 100.295 130.363L140.986 134.344C140.986 134.344 132.963 169.759 129.539 187.257C125.986 205.383 105.76 237.453 105.76 237.453L92.9197 233.163C92.9197 233.163 97.0604 206.746 101.38 185.107Z" fill="#C2F33A"/>
<path opacity="0.3" d="M101.38 185.107C99.6881 166.146 93.4174 138.445 100.295 130.363L140.986 134.344C140.986 134.344 132.963 169.759 129.539 187.257C125.986 205.383 105.76 237.453 105.76 237.453L92.9197 233.163C92.9197 233.163 97.0604 206.746 101.38 185.107Z" fill="black"/>
<path d="M91.8747 233.303L106.407 238.21C106.521 238.248 106.646 238.245 106.759 238.202C106.871 238.158 106.965 238.077 107.024 237.971L109.721 233.133C109.762 233.06 109.786 232.978 109.79 232.894C109.795 232.81 109.78 232.726 109.747 232.648C109.715 232.571 109.665 232.502 109.602 232.446C109.539 232.39 109.464 232.35 109.383 232.327L93.3279 227.689C93.2613 227.669 93.1913 227.663 93.1223 227.671C93.0533 227.68 92.9867 227.701 92.9263 227.736C92.8659 227.77 92.8131 227.816 92.7709 227.871C92.7288 227.927 92.6982 227.99 92.6809 228.057L91.5064 232.626C91.4713 232.764 91.4898 232.911 91.558 233.036C91.6263 233.162 91.7394 233.257 91.8747 233.303Z" fill="#C2F33A"/>
<path d="M170.508 91.9419L167.761 92.1509C167.609 92.1915 167.465 92.2553 167.333 92.34L166.845 92.5889C166.526 92.7681 166.208 92.9273 165.85 93.0866C165.212 93.415 164.566 93.7037 163.948 93.9525C163.319 94.2157 162.67 94.4287 162.007 94.5896L161.41 83.6406C161.311 81.4608 161.151 79.2909 161.022 77.111C160.893 74.9312 160.723 72.7315 160.524 70.6512V70.5118C160.268 68.3632 159.201 66.3936 157.542 65.0051C155.882 63.6167 153.755 62.9142 151.595 63.0413C149.435 63.1683 147.405 64.1153 145.92 65.6888C144.434 67.2622 143.606 69.3434 143.603 71.5072C143.603 73.8761 143.802 76.0958 143.981 78.3751C144.161 80.6545 144.4 82.904 144.708 85.1635L145.156 88.5577L145.703 91.9419C146.052 94.2014 146.51 96.4509 146.968 98.7103L147.177 99.7057C147.319 100.361 147.586 100.983 147.963 101.537C148.801 102.801 149.806 103.945 150.949 104.941C152.327 106.144 153.936 107.051 155.677 107.609C157.415 108.145 159.251 108.288 161.052 108.027C162.508 107.813 163.922 107.373 165.242 106.723C167.268 105.672 169.089 104.266 170.617 102.572C171.293 101.83 171.924 101.049 172.508 100.233C172.797 99.8251 173.066 99.417 173.325 98.999L173.713 98.352L174.121 97.6354C174.5 96.9746 174.67 96.2147 174.609 95.4555C174.53 94.4461 174.054 93.5093 173.285 92.8505C172.516 92.1918 171.517 91.865 170.508 91.9419Z" fill="#263238"/>
<path d="M157.568 61.6128C164.078 67.0575 164.665 85.7304 164.665 85.7304C161.739 91.7523 154.771 92.7477 148.829 93.6933C148.829 93.6933 141.264 88.6269 139.622 75.3289C138.418 65.5246 144.42 50.5942 157.568 61.6128Z" fill="#C2F33A"/>
<g opacity="0.2">
<path d="M157.568 61.6128C164.078 67.0575 164.665 85.7304 164.665 85.7304C161.739 91.7523 154.771 92.7477 148.829 93.6933C148.829 93.6933 141.264 88.6269 139.622 75.3289C138.418 65.5246 144.42 50.5942 157.568 61.6128Z" fill="black"/>
</g>
<path d="M149.157 57.2932C137.727 55.0826 126.086 54.1446 114.449 54.4963C107.721 54.7849 102.624 58.4777 102.117 72.1639C101.121 99.9344 96.4732 121.215 99.0312 131.487C99.0312 131.487 148.72 151.066 164.655 138.455C171.404 105.608 162.147 76.8321 157.817 64.7982C157.141 62.9084 155.988 61.2249 154.471 59.9103C152.954 58.5957 151.124 57.6943 149.157 57.2932Z" fill="#C2F33A"/>
<path d="M161.46 243.933H150.929C150.747 243.929 150.569 243.993 150.431 244.113C150.294 244.232 150.205 244.399 150.183 244.58L148.978 252.911C148.956 253.122 148.978 253.335 149.044 253.537C149.109 253.738 149.216 253.924 149.358 254.082C149.499 254.239 149.673 254.366 149.866 254.452C150.06 254.538 150.269 254.583 150.481 254.583C154.154 254.514 155.926 254.305 160.554 254.305C163.411 254.305 167.741 254.593 171.683 254.593C175.624 254.593 175.823 250.701 174.191 250.353C166.835 248.77 165.511 246.591 163.033 244.51C162.593 244.138 162.036 243.934 161.46 243.933Z" fill="#263238"/>
<path d="M164.984 245.575C165.787 245.646 166.59 245.442 167.263 244.998C167.411 244.863 167.525 244.693 167.594 244.504C167.664 244.315 167.687 244.113 167.661 243.913C167.652 243.792 167.612 243.674 167.546 243.572C167.48 243.469 167.39 243.385 167.283 243.326C166.138 242.699 162.396 244.6 161.978 244.819C161.935 244.838 161.9 244.871 161.878 244.913C161.857 244.954 161.85 245.002 161.858 245.048C161.862 245.095 161.882 245.139 161.915 245.174C161.947 245.208 161.99 245.23 162.037 245.237C163.007 245.442 163.993 245.555 164.984 245.575ZM166.656 243.585C166.8 243.577 166.943 243.604 167.074 243.664C167.117 243.688 167.152 243.722 167.177 243.765C167.201 243.807 167.214 243.855 167.213 243.903C167.235 244.034 167.223 244.168 167.18 244.293C167.136 244.418 167.062 244.531 166.964 244.62C166.397 245.128 164.854 245.217 162.774 244.869C163.988 244.24 165.301 243.823 166.656 243.635V243.585Z" fill="#C2F33A"/>
<path d="M162.097 245.247H162.187C163.302 244.739 165.521 242.719 165.342 241.654C165.342 241.405 165.123 241.086 164.506 241.027C164.287 241.001 164.065 241.022 163.854 241.087C163.643 241.152 163.448 241.26 163.282 241.405C162.097 242.4 161.878 244.918 161.878 245.018C161.873 245.058 161.878 245.098 161.894 245.135C161.91 245.172 161.935 245.204 161.968 245.227C162.009 245.244 162.053 245.251 162.097 245.247ZM164.327 241.445H164.466C164.864 241.445 164.894 241.654 164.904 241.703C165.004 242.34 163.511 243.933 162.366 244.62C162.458 243.558 162.875 242.55 163.56 241.733C163.765 241.547 164.03 241.442 164.307 241.435L164.327 241.445Z" fill="#C2F33A"/>
<path d="M102.445 240.44L92.3026 237.593C92.128 237.541 91.9405 237.555 91.7755 237.632C91.6106 237.709 91.4794 237.844 91.4068 238.011L88.0026 245.715C87.9268 245.91 87.8927 246.119 87.9025 246.329C87.9123 246.538 87.9658 246.743 88.0596 246.931C88.1533 247.118 88.2852 247.284 88.4468 247.417C88.6084 247.551 88.7962 247.649 88.998 247.706C92.5514 248.631 105.471 252.682 109.263 253.678C113.056 254.673 114.31 251.05 112.817 250.274C106.168 246.76 105.62 244.033 103.799 241.315C103.459 240.88 102.982 240.571 102.445 240.44Z" fill="#263238"/>
<path d="M105.362 243.007C106.116 243.289 106.943 243.31 107.711 243.067C107.891 242.977 108.046 242.845 108.164 242.683C108.282 242.52 108.359 242.33 108.388 242.131C108.415 242.013 108.411 241.889 108.376 241.772C108.341 241.655 108.276 241.549 108.189 241.465C107.253 240.539 103.132 241.375 102.664 241.465C102.619 241.473 102.578 241.496 102.548 241.53C102.517 241.565 102.499 241.608 102.495 241.654C102.489 241.698 102.497 241.743 102.519 241.783C102.54 241.822 102.574 241.854 102.615 241.873C103.493 242.336 104.413 242.716 105.362 243.007ZM107.502 241.584C107.637 241.618 107.764 241.682 107.87 241.773C107.908 241.808 107.935 241.852 107.949 241.901C107.963 241.95 107.963 242.002 107.95 242.052C107.933 242.183 107.884 242.307 107.808 242.415C107.731 242.523 107.63 242.61 107.512 242.669C106.825 243.007 105.322 242.669 103.411 241.783C104.763 241.481 106.157 241.414 107.532 241.584H107.502Z" fill="#C2F33A"/>
<path d="M102.684 241.903H102.774C103.988 241.723 106.666 240.37 106.755 239.305C106.755 239.046 106.696 238.698 106.118 238.469C105.915 238.382 105.697 238.338 105.476 238.338C105.256 238.338 105.037 238.382 104.834 238.469C103.431 239.096 102.545 241.455 102.505 241.574C102.487 241.608 102.477 241.645 102.477 241.684C102.477 241.722 102.487 241.759 102.505 241.793C102.523 241.825 102.548 241.853 102.58 241.872C102.611 241.891 102.647 241.902 102.684 241.903ZM105.859 238.847H105.989C106.367 238.996 106.347 239.155 106.347 239.215C106.268 239.852 104.356 240.987 103.112 241.335C103.487 240.336 104.162 239.478 105.043 238.877C105.302 238.764 105.593 238.753 105.859 238.847Z" fill="#C2F33A"/>
<path opacity="0.2" d="M99.6882 103.239C99.2203 107.957 98.8023 112.267 98.5336 116.129C103.321 116.846 111.573 114.596 124.721 101.308L121.029 99.2178L99.6882 103.239Z" fill="black"/>
<path d="M144.987 59.921C143.783 58.4977 142.329 59.1148 141.872 57.0942C141.737 55.5308 142.149 53.9691 143.036 52.6748L128.106 42.6416C127.857 48.4744 127.648 53.073 124.861 55.1334C123.696 59.3835 131.291 64.4698 142.051 65.5747C148.869 66.2515 146.709 61.9715 144.987 59.921Z" fill="#CE7A63"/>
<path opacity="0.2" d="M142.757 53.1426L130.604 48.8228C133.271 54.0783 138.676 57.3331 141.841 56.4273C141.858 55.2717 142.173 54.14 142.757 53.1426Z" fill="black"/>
<path d="M140.339 24.2575C132.276 21.6397 124.512 27.7911 125.408 35.4055C126.304 43.02 127.061 48.1661 131.968 51.2019C141.732 57.2437 147.207 52.8542 148.799 45.1402C150.153 38.1926 148.53 26.9151 140.339 24.2575Z" fill="#CE7A63"/>
<path d="M140.906 45.5977C141.255 45.6065 141.605 45.5865 141.951 45.538C142.005 45.5305 142.054 45.5025 142.087 45.4598C142.121 45.4171 142.136 45.363 142.13 45.3091C142.127 45.2815 142.118 45.2549 142.104 45.2309C142.089 45.2069 142.071 45.186 142.049 45.1693C142.026 45.1526 142.001 45.1405 141.974 45.1338C141.947 45.127 141.919 45.1257 141.891 45.1299C141.024 45.2588 140.139 45.1819 139.307 44.9052C138.476 44.6285 137.721 44.1599 137.104 43.5373C137.065 43.5002 137.013 43.4795 136.959 43.4795C136.906 43.4795 136.854 43.5002 136.815 43.5373C136.796 43.5559 136.78 43.5783 136.769 43.6031C136.759 43.6279 136.753 43.6546 136.753 43.6816C136.753 43.7086 136.759 43.7354 136.769 43.7602C136.78 43.785 136.796 43.8074 136.815 43.826C137.344 44.3795 137.979 44.8215 138.681 45.1258C139.384 45.4301 140.14 45.5905 140.906 45.5977Z" fill="#263238"/>
<path d="M138.786 37.555C138.786 38.2219 139.194 38.7494 139.632 38.7196C140.07 38.6897 140.398 38.1422 140.369 37.4754C140.339 36.8085 139.96 36.2809 139.523 36.3008C139.085 36.3207 138.756 36.8881 138.786 37.555Z" fill="#263238"/>
<path d="M146.629 37.2667C146.629 37.9336 147.037 38.4611 147.465 38.4312C147.893 38.4014 148.242 37.8539 148.212 37.187C148.182 36.5201 147.804 35.9926 147.366 36.0125C146.928 36.0324 146.599 36.5998 146.629 37.2667Z" fill="#263238"/>
<path d="M144.001 37.7244L143.832 43.3382C144.32 43.4749 144.832 43.5039 145.332 43.4231C145.832 43.3423 146.309 43.1537 146.729 42.8704C146.279 40.9483 145.34 39.1753 144.001 37.7244Z" fill="#BA4D3C"/>
<path d="M136.377 35.7935C136.312 35.8129 136.243 35.8129 136.178 35.7935C136.13 35.7749 136.086 35.7469 136.049 35.7112C136.012 35.6754 135.983 35.6327 135.962 35.5855C135.942 35.5383 135.931 35.4875 135.931 35.436C135.93 35.3846 135.94 35.3336 135.959 35.2859C136.173 34.6986 136.523 34.1699 136.979 33.7428C137.436 33.3157 137.987 33.0021 138.587 32.8273C138.637 32.8162 138.689 32.8151 138.74 32.8241C138.791 32.8331 138.839 32.852 138.883 32.8798C138.926 32.9075 138.964 32.9435 138.993 32.9857C139.023 33.028 139.044 33.0756 139.055 33.126C139.066 33.1763 139.067 33.2283 139.058 33.279C139.049 33.3298 139.03 33.3783 139.002 33.4217C138.975 33.4651 138.939 33.5027 138.896 33.5322C138.854 33.5617 138.806 33.5827 138.756 33.5938C138.28 33.7402 137.846 33.9968 137.488 34.3427C137.13 34.6886 136.858 35.114 136.696 35.5845C136.664 35.6426 136.618 35.692 136.562 35.7285C136.507 35.7649 136.443 35.7872 136.377 35.7935Z" fill="#263238"/>
<path d="M149.446 34.5593C149.39 34.5531 149.336 34.5359 149.286 34.5085C149.236 34.4812 149.193 34.4443 149.158 34.4C148.922 33.9675 148.586 33.5985 148.177 33.3246C147.767 33.0507 147.298 32.8801 146.809 32.8273C146.757 32.8261 146.706 32.8144 146.658 32.7931C146.611 32.7718 146.569 32.7412 146.533 32.7032C146.498 32.6651 146.471 32.6204 146.453 32.5716C146.435 32.5229 146.428 32.471 146.43 32.4192C146.438 32.3163 146.484 32.22 146.56 32.1498C146.636 32.0796 146.735 32.0407 146.838 32.041C147.46 32.108 148.055 32.324 148.575 32.6706C149.095 33.0172 149.524 33.4841 149.825 34.0317C149.852 34.0754 149.87 34.1241 149.878 34.1749C149.886 34.2256 149.884 34.2775 149.872 34.3276C149.86 34.3776 149.838 34.4247 149.808 34.4662C149.778 34.5076 149.739 34.5427 149.695 34.5692C149.613 34.589 149.527 34.5855 149.446 34.5593Z" fill="#263238"/>
<path d="M129.25 42.1039C129.25 42.1039 132.236 43.0993 131.749 38.7197C131.508 35.369 131.525 32.0048 131.798 28.6566C131.798 28.6566 151.357 30.7369 149.496 24.7548C148.501 21.4502 144.34 24.9439 144.34 24.9439C144.34 24.9439 146.161 21.1019 143.514 20.3255C141.234 19.6586 140.369 23.3116 140.369 23.3116C140.369 23.3116 125.787 19.3898 123.666 29.9307C121.546 40.4715 129.25 42.1039 129.25 42.1039Z" fill="#263238"/>
<path d="M122.373 20.2459C113.275 28.3084 118.391 35.7536 121.745 39.1578C120.053 41.3774 115.982 47.1206 117.625 48.8327C119.267 50.5447 122.512 43.5274 123.647 40.8698L123.955 41.1087C123.955 41.1087 126.165 31.2546 140.369 23.3117C140.369 23.2818 132.894 10.9194 122.373 20.2459Z" fill="#C2F33A"/>
<path d="M139.602 22.1872C139.055 21.4803 138.456 20.8149 137.81 20.1965C137.306 20.0005 136.762 19.9272 136.224 19.9825C135.686 20.0379 135.169 20.2204 134.715 20.515C132.097 22.0478 133.122 24.0186 134.317 25.3425C135.956 24.0977 137.729 23.0394 139.602 22.1872Z" fill="#263238"/>
<path opacity="0.5" d="M118.64 24.6951C115.146 30.9459 118.988 36.3607 121.725 39.1178L124.055 36.0123C121.305 32.7694 119.44 28.871 118.64 24.6951Z" fill="white"/>
<path d="M147.575 34.6091C146.933 34.6746 146.335 34.9674 145.89 35.4346C145.445 35.9018 145.181 36.5127 145.146 37.1572C144.894 37.0033 144.605 36.9218 144.31 36.9218C144.015 36.9218 143.726 37.0033 143.474 37.1572C143.333 36.4132 142.926 35.7461 142.328 35.2815C141.73 34.8169 140.983 34.5868 140.227 34.6345C139.471 34.6822 138.759 35.0044 138.224 35.5405C137.689 36.0765 137.369 36.7896 137.323 37.5454H126.165V37.9336H137.323C137.349 38.7573 137.702 39.5367 138.303 40.1004C138.904 40.6641 139.704 40.966 140.528 40.9396C141.351 40.9132 142.131 40.5607 142.695 39.9596C143.258 39.3586 143.56 38.5582 143.534 37.7346C143.534 37.7346 143.534 37.645 143.534 37.6052C143.752 37.412 144.033 37.3054 144.325 37.3054C144.617 37.3054 144.898 37.412 145.116 37.6052C145.116 37.6052 145.116 37.6848 145.116 37.7246C145.116 39.4466 146.231 40.8401 147.595 40.8401C148.958 40.8401 150.073 39.4466 150.073 37.7246C150.073 36.0026 148.938 34.6091 147.575 34.6091ZM140.418 40.4618C139.876 40.4638 139.346 40.3049 138.895 40.0054C138.443 39.7058 138.091 39.279 137.882 38.779C137.674 38.279 137.618 37.7283 137.722 37.1967C137.827 36.6651 138.087 36.1764 138.469 35.7926C138.852 35.4088 139.339 35.1471 139.871 35.0407C140.402 34.9343 140.953 34.9879 141.453 35.1948C141.954 35.4017 142.382 35.7525 142.684 36.2028C142.985 36.6532 143.145 37.1828 143.145 37.7246C143.146 38.4488 142.858 39.1436 142.347 39.6566C141.836 40.1697 141.142 40.4592 140.418 40.4618ZM147.575 40.4618C146.42 40.4618 145.485 39.2375 145.485 37.7246C145.485 36.2116 146.42 34.9973 147.575 34.9973C148.729 34.9973 149.675 36.2216 149.675 37.7246C149.675 39.2276 148.729 40.4618 147.575 40.4618Z" fill="#C2F33A"/>
<path opacity="0.5" d="M147.575 34.6091C146.933 34.6746 146.335 34.9674 145.89 35.4346C145.445 35.9018 145.181 36.5127 145.146 37.1572C144.894 37.0033 144.605 36.9218 144.31 36.9218C144.015 36.9218 143.726 37.0033 143.474 37.1572C143.333 36.4132 142.926 35.7461 142.328 35.2815C141.73 34.8169 140.983 34.5868 140.227 34.6345C139.471 34.6822 138.759 35.0044 138.224 35.5405C137.689 36.0765 137.369 36.7896 137.323 37.5454H126.165V37.9336H137.323C137.349 38.7573 137.702 39.5367 138.303 40.1004C138.904 40.6641 139.704 40.966 140.528 40.9396C141.351 40.9132 142.131 40.5607 142.695 39.9596C143.258 39.3586 143.56 38.5582 143.534 37.7346C143.534 37.7346 143.534 37.645 143.534 37.6052C143.752 37.412 144.033 37.3054 144.325 37.3054C144.617 37.3054 144.898 37.412 145.116 37.6052C145.116 37.6052 145.116 37.6848 145.116 37.7246C145.116 39.4466 146.231 40.8401 147.595 40.8401C148.958 40.8401 150.073 39.4466 150.073 37.7246C150.073 36.0026 148.938 34.6091 147.575 34.6091ZM140.418 40.4618C139.876 40.4638 139.346 40.3049 138.895 40.0054C138.443 39.7058 138.091 39.279 137.882 38.779C137.674 38.279 137.618 37.7283 137.722 37.1967C137.827 36.6651 138.087 36.1764 138.469 35.7926C138.852 35.4088 139.339 35.1471 139.871 35.0407C140.402 34.9343 140.953 34.9879 141.453 35.1948C141.954 35.4017 142.382 35.7525 142.684 36.2028C142.985 36.6532 143.145 37.1828 143.145 37.7246C143.146 38.4488 142.858 39.1436 142.347 39.6566C141.836 40.1697 141.142 40.4592 140.418 40.4618ZM147.575 40.4618C146.42 40.4618 145.485 39.2375 145.485 37.7246C145.485 36.2116 146.42 34.9973 147.575 34.9973C148.729 34.9973 149.675 36.2216 149.675 37.7246C149.675 39.2276 148.729 40.4618 147.575 40.4618Z" fill="white"/>
<path d="M122.86 41.8851C123.788 43.4304 125.292 44.5439 127.041 44.9807C129.37 45.5381 130.465 43.4279 129.758 41.278C129.121 39.347 127.15 36.7192 124.841 37.1273C124.339 37.2228 123.869 37.4414 123.472 37.7634C123.076 38.0855 122.765 38.501 122.569 38.9726C122.373 39.4443 122.296 39.9573 122.347 40.4656C122.398 40.974 122.574 41.4617 122.86 41.8851Z" fill="#CE7A63"/>
<path d="M124.632 56.049C122.074 53.3715 117.724 52.9833 114.191 53.8095V54.4863C117.445 54.7849 122.791 57.1639 123.915 71.8255C125.398 91.2051 104.476 114.626 97.9861 121.155C96.8215 122.335 96.1157 123.892 95.9954 125.545L95.7366 128.899C95.7077 129.267 95.7878 129.634 95.967 129.956C96.1461 130.278 96.4163 130.54 96.7437 130.709C97.0711 130.878 97.4411 130.947 97.8073 130.906C98.1735 130.866 98.5197 130.718 98.8023 130.482C107.621 123.146 130.654 101.537 130.654 75.7373C130.604 65.1566 127.737 59.284 124.632 56.049Z" fill="#C2F33A"/>
<path opacity="0.5" d="M124.632 56.049C122.074 53.3715 117.724 52.9833 114.191 53.8095V54.4863C117.445 54.7849 122.791 57.1639 123.915 71.8255C125.398 91.2051 104.476 114.626 97.9861 121.155C96.8215 122.335 96.1157 123.892 95.9954 125.545L95.7366 128.899C95.7077 129.267 95.7878 129.634 95.967 129.956C96.1461 130.278 96.4163 130.54 96.7437 130.709C97.0711 130.878 97.4411 130.947 97.8073 130.906C98.1735 130.866 98.5197 130.718 98.8023 130.482C107.621 123.146 130.654 101.537 130.654 75.7373C130.604 65.1566 127.737 59.284 124.632 56.049Z" fill="black"/>
<path d="M126.861 95.8134C126.694 95.2805 126.423 94.7859 126.064 94.3579C125.705 93.9299 125.265 93.5768 124.77 93.3189C124.274 93.061 123.733 92.9033 123.176 92.8548C122.62 92.8063 122.059 92.868 121.526 93.0363L121.327 93.0961C118.928 93.8525 116.35 94.7085 113.942 95.4252C111.533 96.1419 109.045 96.8386 106.676 97.3462C105.501 97.5951 104.346 97.834 103.232 97.9833C102.505 98.0729 101.808 98.1425 101.151 98.1724C101.241 97.5453 101.35 96.9083 101.51 96.2513C101.755 95.1983 102.064 94.1612 102.435 93.1458C102.784 92.0907 103.222 91.0158 103.69 89.9408C104.675 87.7317 105.782 85.5784 107.004 83.4909C107.611 82.4159 108.278 81.3608 108.935 80.3157L109.93 78.7728L110.428 78.0263L110.846 77.4092L111.165 76.9513C112.415 75.1283 112.905 72.8889 112.529 70.7103C112.152 68.5317 110.94 66.5861 109.15 65.2882C107.36 63.9904 105.135 63.4427 102.947 63.7621C100.759 64.0814 98.7828 65.2424 97.4387 66.9977L96.6225 68.0727L95.9058 69.0681C95.438 69.7151 95 70.372 94.572 71.0588C93.6961 72.3627 92.8998 73.7164 92.1234 75.0402C91.3471 76.3641 90.6503 77.8173 89.9635 79.2506C89.2767 80.6839 88.6496 82.167 88.0922 83.6999C86.8748 86.8604 86.0233 90.1499 85.5541 93.5042C85.2874 95.3061 85.1775 97.1278 85.2256 98.9488C85.2804 100.892 85.5238 102.826 85.9522 104.722L86.0517 105.16C86.2907 106.164 86.7496 107.102 87.3955 107.907C88.4823 109.257 89.8382 110.365 91.3769 111.162C92.6442 111.809 94.0096 112.243 95.4181 112.446C97.4777 112.741 99.5713 112.704 101.619 112.336C103.271 112.065 104.896 111.652 106.476 111.102C107.97 110.594 109.383 110.047 110.747 109.43C113.392 108.233 115.956 106.863 118.421 105.329C120.843 103.836 123.17 102.194 125.388 100.412C126.069 99.8836 126.574 99.1617 126.837 98.3409C127.1 97.5201 127.109 96.639 126.861 95.8134Z" fill="#263238"/>
<path d="M106.914 56.547C93.3477 63.6937 87.4452 79.8085 87.4452 79.8085C90.0928 84.9247 103.112 89.0056 109.184 87.5226C109.184 87.5226 118.142 78.5146 119.406 69.0188C120.561 60.2796 114.867 52.3167 106.914 56.547Z" fill="#C2F33A"/>
<g opacity="0.2">
<path d="M106.914 56.547C93.3477 63.6937 87.4452 79.8085 87.4452 79.8085C90.0928 84.9247 103.112 89.0056 109.184 87.5226C109.184 87.5226 118.142 78.5146 119.406 69.0188C120.561 60.2796 114.867 52.3167 106.914 56.547Z" fill="black"/>
</g>
<path d="M121.875 95.3657L123.865 98.1627C128.444 101.268 131.43 94.6789 131.43 94.6789L134.138 92.091C134.588 91.6049 134.85 90.9741 134.878 90.3119C134.905 89.6498 134.696 88.9995 134.287 88.4779L132.187 85.442C131.789 84.7984 131.156 84.3347 130.422 84.149C129.689 83.9633 128.911 84.07 128.255 84.4467L125.548 86.2881C124.762 86.8269 124.123 87.5519 123.686 88.3982L121.696 92.2304C121.438 92.72 121.318 93.2705 121.35 93.8229C121.381 94.3753 121.563 94.9087 121.875 95.3657Z" fill="#CE7A63"/>
<path d="M166.019 96.9086L166.288 91.9318C166.4 89.9296 166.246 87.9213 165.83 85.9597C163.577 75.5123 158.518 65.8769 151.198 58.0896C150.76 57.6339 150.194 57.3215 149.576 57.1938L144.489 56.1288C144.405 56.1114 144.317 56.1227 144.239 56.1609C144.162 56.1991 144.1 56.2619 144.062 56.3396C144.024 56.4172 144.014 56.5051 144.032 56.5895C144.049 56.6739 144.095 56.7499 144.161 56.8056C148.7 60.369 162.794 73.229 165.661 96.9086H166.019Z" fill="#C2F33A"/>
<path opacity="0.5" d="M166.019 96.9086L166.288 91.9318C166.4 89.9296 166.246 87.9213 165.83 85.9597C163.577 75.5123 158.518 65.8769 151.198 58.0896C150.76 57.6339 150.194 57.3215 149.576 57.1938L144.489 56.1288C144.405 56.1114 144.317 56.1227 144.239 56.1609C144.162 56.1991 144.1 56.2619 144.062 56.3396C144.024 56.4172 144.014 56.5051 144.032 56.5895C144.049 56.6739 144.095 56.7499 144.161 56.8056C148.7 60.369 162.794 73.229 165.661 96.9086H166.019Z" fill="black"/>
<path d="M174.489 95.3657L172.499 98.1627C167.91 101.268 164.934 94.6789 164.934 94.6789L162.227 92.091C161.776 91.6049 161.514 90.9741 161.486 90.3119C161.459 89.6498 161.669 88.9995 162.077 88.4779L164.178 85.442C164.576 84.7984 165.208 84.3347 165.942 84.149C166.676 83.9633 167.453 84.07 168.109 84.4467L170.817 86.2881C171.602 86.8269 172.241 87.5519 172.678 88.3982L174.669 92.2304C174.926 92.72 175.046 93.2705 175.014 93.8229C174.983 94.3753 174.801 94.9087 174.489 95.3657Z" fill="#CE7A63"/>
<path d="M155.274 185.017L137.907 232.374C137.221 234.228 135.829 235.736 134.035 236.568C132.241 237.4 130.191 237.49 128.332 236.816L20.5334 197.34C18.6765 196.654 17.1674 195.259 16.3365 193.462C15.5056 191.665 15.4207 189.612 16.1004 187.753L33.4635 140.413C33.7886 139.512 34.2888 138.685 34.9353 137.979C35.9342 136.878 37.2382 136.099 38.6814 135.741C40.1246 135.383 41.6415 135.463 43.0392 135.97L150.855 175.46C152.249 175.974 153.458 176.892 154.328 178.096C155.198 179.301 155.69 180.737 155.74 182.222C155.771 183.175 155.612 184.125 155.274 185.017Z" fill="#C2F33A"/>
<path opacity="0.8" d="M155.274 185.017L137.907 232.374C137.221 234.228 135.829 235.736 134.035 236.568C132.241 237.4 130.191 237.49 128.332 236.816L20.5334 197.34C18.6765 196.654 17.1674 195.259 16.3365 193.462C15.5056 191.665 15.4207 189.612 16.1004 187.753L33.4635 140.413C33.7886 139.512 34.2888 138.685 34.9353 137.979C35.9342 136.878 37.2382 136.099 38.6814 135.741C40.1246 135.383 41.6415 135.463 43.0392 135.97L150.855 175.46C152.249 175.974 153.458 176.892 154.328 178.096C155.198 179.301 155.69 180.737 155.74 182.222C155.771 183.175 155.612 184.125 155.274 185.017Z" fill="white"/>
<path opacity="0.6" d="M155.716 182.203L95.4525 185.323C92.4243 185.478 89.396 185.02 86.5491 183.977C83.7022 182.933 81.0954 181.325 78.8851 179.249L34.8917 137.973C35.8906 136.872 37.1946 136.093 38.6378 135.735C40.081 135.377 41.598 135.457 42.9956 135.964L150.812 175.454C152.207 175.964 153.419 176.878 154.293 178.081C155.167 179.283 155.662 180.718 155.716 182.203Z" fill="#C2F33A"/>
</svg>
