<svg width="211" height="226" viewBox="0 0 211 226" fill="none" xmlns="http://www.w3.org/2000/svg">
<path fill-rule="evenodd" clip-rule="evenodd" d="M89.5552 8.28343C117.421 4.16908 146.64 9.78415 168.538 27.4861C192.688 47.0078 212.245 75.3933 210.938 106.404C209.663 136.661 184.468 158.447 162.156 178.945C141.133 198.259 118.093 216.818 89.5552 217.919C60.067 219.057 29.043 208.198 11.1213 184.772C-5.44801 163.115 0.342145 133.385 4.24032 106.404C7.42999 84.3265 16.2685 64.6459 30.9098 47.807C46.9861 29.3178 65.3059 11.8638 89.5552 8.28343Z" fill="#7ED5B3"/>
<path d="M30.0344 19.0463L17.4812 70.8165C17.1029 72.3896 17.13 74.0329 17.5599 75.5927C17.9899 77.1524 18.8086 78.5776 19.9396 79.7346C21.0705 80.8916 22.4765 81.7427 24.0261 82.2082C25.5756 82.6737 27.2179 82.7383 28.7992 82.396L81.2736 71.069C82.9383 70.7023 84.4748 69.8971 85.7237 68.7369C86.9726 67.5768 87.8886 66.1037 88.3768 64.4705C88.865 62.8372 88.9077 61.1031 88.5003 59.4479C88.0929 57.7926 87.2504 56.2763 86.0599 55.0562L46.1775 14.5827C44.9812 13.3613 43.4795 12.4826 41.8286 12.0381C40.1777 11.5936 38.4379 11.5995 36.79 12.0551C35.1421 12.5107 33.6464 13.3995 32.4584 14.629C31.2703 15.8585 30.4333 17.3838 30.0344 19.0463Z" fill="#C2F33A"/>
<path d="M28.6083 78.2482C27.6446 78.4426 26.6473 78.3902 25.7093 78.0958C24.7712 77.8015 23.9227 77.2749 23.2428 76.5648C22.5422 75.8817 22.0288 75.0301 21.7517 74.0917C21.4746 73.1533 21.4431 72.1594 21.6602 71.2053L34.2402 19.2969C34.4582 18.3899 34.9296 17.5636 35.5995 16.9145C36.2694 16.2653 37.1101 15.8201 38.0234 15.6307C38.9881 15.4384 39.9856 15.4928 40.9236 15.7888C41.8616 16.0848 42.7097 16.6129 43.3892 17.324L83.4103 57.8439C84.1117 58.5265 84.6265 59.3776 84.9052 60.3159C85.184 61.2542 85.2176 62.2482 85.0026 63.2031C84.783 64.1083 84.3108 64.9325 83.641 65.5798C82.9712 66.2271 82.1314 66.6709 81.2192 66.8595L28.6083 78.2482Z" fill="white"/>
<path d="M40.8933 31.2941L44.2335 30.5684C45.3127 30.3721 46.4264 30.5817 47.3604 31.1569C48.2944 31.7321 48.9828 32.6323 49.2932 33.6844L50.5825 38.1545C50.6312 38.3186 50.6707 38.4853 50.7007 38.6538L53.1168 52.762C53.3022 53.7114 53.1051 54.6956 52.5684 55.5003C52.0317 56.3051 51.1989 56.8654 50.2513 57.0592C49.2571 57.2447 48.2295 57.0842 47.3393 56.6044C46.4491 56.1245 45.7501 55.3543 45.3585 54.4219L39.6423 41.078C39.5731 40.9225 39.514 40.7627 39.4655 40.5995L38.1367 36.1204C37.9655 35.6229 37.9025 35.0947 37.9518 34.571C38.0011 34.0472 38.1616 33.54 38.4225 33.0832C38.6834 32.6264 39.0387 32.2306 39.4648 31.9221C39.8909 31.6135 40.3779 31.3995 40.8933 31.2941ZM50.9768 60.8814L51.8878 60.6862C52.8543 60.4989 53.8558 60.6807 54.6948 61.1958C55.5337 61.7109 56.1491 62.5218 56.4194 63.4684C56.5668 63.9088 56.6198 64.3753 56.5748 64.8376C56.5298 65.2998 56.3879 65.7474 56.1583 66.1511C55.9288 66.5548 55.6167 66.9056 55.2424 67.1806C54.8682 67.4556 54.4402 67.6486 53.9863 67.7471L53.0753 67.9424C52.1102 68.13 51.1097 67.9496 50.271 67.4364C49.4323 66.9233 48.8162 66.1147 48.5439 65.17C48.3964 64.729 48.3434 64.2618 48.3883 63.799C48.4332 63.3361 48.575 62.8879 48.8044 62.4834C49.0339 62.079 49.3459 61.7273 49.7202 61.4513C50.0944 61.1753 50.5226 60.9811 50.9768 60.8814Z" fill="#C2F33A"/>
<path d="M71.7205 49.9056C71.7205 49.9056 69.5427 51.4824 68.8214 56.7997C68.1002 62.117 69.7831 69.3647 69.9103 70.5738C70.0376 71.7829 65.7951 85.6843 65.6678 88.343C65.5405 91.0016 68.4467 92.331 70.7447 92.5855C73.0427 92.8401 75.3408 88.845 75.3408 88.845C76.0344 85.094 76.4387 81.2951 76.5499 77.4821C76.5499 72.5325 73.6438 68.0495 73.6438 62.6332C73.6438 57.2169 74.8529 52.1187 74.3509 50.6692C73.8489 49.2197 71.7205 49.9056 71.7205 49.9056Z" fill="#C2F33A"/>
<path d="M70.9499 92.9394H70.7166C68.0296 92.6565 65.2012 91.1009 65.3215 88.3433C65.3922 86.8796 66.6013 82.3684 67.768 77.9986C68.6307 74.7742 69.6064 71.1256 69.5569 70.6236C69.5569 70.4115 69.4509 69.9165 69.3448 69.3508C68.871 66.678 67.8741 61.1203 68.468 56.7646C69.1751 51.3554 71.4166 49.6937 71.5156 49.6371L71.6075 49.5877C72.0157 49.4631 72.4394 49.3965 72.8661 49.3897C73.2586 49.3451 73.6548 49.4338 73.9908 49.6416C74.3268 49.8493 74.5832 50.1641 74.7187 50.5352C74.9874 51.3412 74.7964 52.9817 74.5419 55.2514C74.2247 57.6929 74.0476 60.1505 74.0116 62.6123C74.1223 65.2338 74.6228 67.8242 75.4965 70.2983C76.2036 72.7166 76.9107 75.0076 76.9107 77.4824C76.7979 81.3167 76.3913 85.1368 75.6945 88.909C75.6879 88.9469 75.6734 88.983 75.652 89.015C75.5743 89.1706 73.3611 92.9394 70.9499 92.9394ZM71.8903 50.224C71.6004 50.4786 69.8044 52.1756 69.168 56.8424C68.5953 61.0849 69.5711 66.572 70.0377 69.2094C70.1509 69.8387 70.2357 70.2983 70.2569 70.5387C70.3206 71.1398 69.6135 73.8267 68.4468 78.1683C67.3437 82.2977 66.0922 86.9715 66.0285 88.3574C65.9083 91.009 69.0902 92.0414 70.7943 92.2252C72.4984 92.4091 74.3722 89.7928 75.0369 88.6898C75.7212 84.9805 76.1207 81.2243 76.2319 77.4541C76.2319 75.0853 75.5601 72.8439 74.8177 70.468C73.9252 67.9296 73.4152 65.2725 73.3045 62.584C73.3418 60.0962 73.5212 57.6127 73.8419 55.1454C74.0682 53.1302 74.2662 51.3907 74.047 50.7331C73.7146 49.7715 72.2014 50.1392 71.8903 50.224Z" fill="#263238"/>
<path d="M113.432 100.265C113.432 100.265 121.104 130.5 120.8 132.607C120.496 134.714 112.831 135.916 112.831 135.916L109.967 102.803L113.432 100.265Z" fill="#263238"/>
<path d="M112.831 136.27C112.751 136.27 112.674 136.243 112.612 136.192C112.573 136.163 112.541 136.126 112.518 136.083C112.494 136.041 112.481 135.993 112.477 135.945L109.649 102.853C109.644 102.793 109.654 102.732 109.679 102.676C109.703 102.62 109.742 102.572 109.79 102.535L113.248 99.9824C113.295 99.9482 113.349 99.926 113.406 99.9177C113.464 99.9094 113.522 99.9153 113.576 99.9349C113.631 99.9544 113.68 99.987 113.719 100.03C113.757 100.073 113.785 100.124 113.8 100.18C114.584 103.277 121.479 130.543 121.182 132.657C120.856 134.906 114.238 136.058 112.909 136.263L112.831 136.27ZM110.342 102.988L113.17 135.514C116.048 135.019 120.291 133.852 120.474 132.565C120.68 131.087 116.31 113 113.234 100.866L110.342 102.988Z" fill="#263238"/>
<path d="M82.8147 212.869C82.8147 212.869 79.8874 215.485 78.5015 216.567C77.1156 217.649 74.8034 219.65 72.4912 220.42C70.1791 221.191 68.9558 221.651 69.0972 222.888C69.2386 224.126 69.2528 225.356 70.0235 225.504C70.7942 225.653 98.5404 225.504 98.5404 225.504C98.5404 225.504 99.3112 224.274 99.1556 221.502C99.0623 219.806 98.6995 218.135 98.0808 216.553C98.0808 216.553 91.0099 214.545 87.9058 212.855C84.8017 211.165 82.8147 212.869 82.8147 212.869Z" fill="white"/>
<path d="M78.0915 225.929C73.6721 225.929 70.2357 225.929 69.9528 225.851C69.0407 225.674 68.9276 224.6 68.8073 223.468C68.8073 223.291 68.8074 223.115 68.7437 222.931C68.5528 221.361 70.1579 220.81 72.3781 220.102C74.3226 219.452 76.2601 217.91 77.6742 216.779L78.2824 216.305C79.6471 215.245 82.5249 212.643 82.5815 212.614C82.6734 212.544 84.8088 210.79 88.0685 212.614C91.0807 214.269 98.0951 216.263 98.1658 216.284C98.2172 216.297 98.265 216.322 98.3055 216.356C98.3459 216.39 98.378 216.433 98.3991 216.482C99.0297 218.099 99.4019 219.805 99.5022 221.538C99.6648 224.366 98.8658 225.696 98.8375 225.78C98.804 225.83 98.7587 225.871 98.7057 225.9C98.6527 225.928 98.5935 225.943 98.5334 225.943C96.7303 225.872 85.8907 225.929 78.0915 225.929ZM83.0411 213.138C82.8572 213.293 80.0784 215.782 78.7137 216.843L78.1056 217.324C76.649 218.483 74.655 220.067 72.5903 220.753C70.2145 221.545 69.3235 221.934 69.4437 222.874C69.4437 223.058 69.4861 223.242 69.5003 223.419C69.5922 224.288 69.6841 225.109 70.0872 225.186C70.865 225.307 90.515 225.229 98.3142 225.186C98.7584 224.027 98.9232 222.78 98.7951 221.545C98.7024 219.951 98.3687 218.379 97.8051 216.885C96.695 216.567 90.5857 214.764 87.7291 213.201C84.8725 211.639 83.1613 213.039 83.0482 213.109L83.0411 213.138Z" fill="#263238"/>
<path d="M99.0001 224.119H69.2104C69.3165 224.826 69.4861 225.406 69.9952 225.533C70.766 225.689 98.5122 225.533 98.5122 225.533C98.7528 225.092 98.9177 224.614 99.0001 224.119Z" fill="white"/>
<path d="M78.0915 225.929C73.6722 225.929 70.2357 225.929 69.9529 225.851C69.1114 225.688 68.9629 224.663 68.8922 224.168C68.8863 224.119 68.8908 224.068 68.9054 224.02C68.92 223.973 68.9443 223.928 68.9769 223.89C69.0094 223.853 69.0496 223.822 69.0946 223.8C69.1397 223.779 69.1887 223.767 69.2387 223.765H99.0002C99.0532 223.766 99.1054 223.778 99.153 223.802C99.2007 223.825 99.2427 223.858 99.2759 223.899C99.3086 223.939 99.3318 223.986 99.3441 224.036C99.3563 224.087 99.3572 224.139 99.3466 224.189C99.2607 224.713 99.0912 225.219 98.8446 225.688C98.8128 225.741 98.7682 225.784 98.7149 225.813C98.6617 225.843 98.6015 225.858 98.5405 225.858C96.7304 225.872 85.8907 225.929 78.0915 225.929ZM69.663 224.472C69.762 224.911 69.8963 225.123 70.0943 225.179C70.8721 225.3 90.5221 225.222 98.3213 225.179C98.4181 224.95 98.4961 224.714 98.5547 224.472H69.663Z" fill="#263238"/>
<path d="M73.7216 107.753C72.5514 116.503 72.5514 125.37 73.7216 134.12C75.7227 147.555 77.8864 157.087 77.8864 157.087C77.8864 157.087 80.9693 170.521 81.2734 174.813C81.5774 179.105 84.5118 201.952 84.3563 202.39C84.1025 203.137 83.948 203.915 83.8967 204.702C83.8967 205.473 81.8885 206.555 82.1997 207.481C82.5081 209.266 82.7135 211.067 82.8148 212.876C82.8148 212.876 86.3503 212.254 87.9059 212.876C89.4615 213.498 96.391 215.959 96.391 215.959L98.088 216.574C98.6266 216.147 99.0693 215.612 99.3873 215.003C99.7053 214.394 99.8914 213.725 99.9335 213.039C99.9335 210.882 97.1617 208.414 97.1617 208.414C97.1617 208.414 99.0143 207.644 99.1627 206.873C99.3112 206.102 98.392 203.337 98.392 202.871C98.392 202.404 98.088 197.78 98.088 196.853C98.088 195.927 98.2435 184.211 98.2435 182.825C98.2435 181.439 96.8294 160.162 96.8294 160.162L95.2879 144.748C95.2879 144.748 98.993 162.171 100.535 167.721C102.076 173.272 106.545 196.549 106.7 197.32C106.856 198.091 107.471 204.101 107.316 204.561C107.16 205.02 105.463 206.102 105.618 206.724C105.774 207.347 106.849 215.047 106.849 215.047L118 215.938C118.693 214.638 119.312 213.299 119.852 211.929C120.467 210.232 119.386 208.69 119.386 208.075C119.386 207.46 120.312 207.608 120.008 205.148C119.704 202.687 119.386 200.672 119.386 200.672C119.386 200.672 118.615 199.441 118.466 195.121C118.318 190.801 120.779 178.936 119.082 172.155C117.385 165.374 115.348 159.682 115.171 152.3C114.995 144.918 115.016 131.03 114.401 127.325C113.785 123.62 112.795 112.059 112.795 112.059L112.392 110.369L73.7216 107.753Z" fill="#8C8C8C"/>
<path d="M98.0809 216.921C98.0412 216.928 98.0004 216.928 97.9607 216.921L96.2637 216.305C95.9809 216.206 89.3059 213.831 87.7786 213.215C86.2513 212.6 82.9209 213.215 82.8855 213.215C82.8361 213.225 82.7852 213.223 82.7363 213.211C82.6875 213.199 82.6419 213.176 82.6027 213.145C82.5643 213.113 82.5326 213.075 82.5096 213.031C82.4865 212.987 82.4725 212.939 82.4683 212.89C82.3756 211.11 82.1772 209.337 81.8744 207.58C81.634 206.873 82.2774 206.166 82.8502 205.607C83.1471 205.303 83.5573 204.9 83.5573 204.695C83.6089 203.869 83.7706 203.053 84.0381 202.27C84.0381 201.852 83.331 195.821 82.6239 189.987C81.8602 183.588 81.0683 176.97 80.9127 174.813C80.6158 170.571 77.5612 157.27 77.5329 157.136C77.5046 157.002 75.3479 147.414 73.3681 134.141C71.3882 120.869 73.3681 107.802 73.3681 107.675C73.3725 107.631 73.3855 107.589 73.4065 107.55C73.4274 107.512 73.4557 107.477 73.4899 107.45C73.5241 107.422 73.5635 107.402 73.6057 107.389C73.6479 107.377 73.6921 107.373 73.7358 107.378L112.435 109.994C112.51 110 112.582 110.03 112.639 110.08C112.697 110.129 112.737 110.196 112.753 110.27L113.156 111.953C113.156 112.123 114.153 123.606 114.761 127.247C115.235 130.076 115.348 138.561 115.468 145.999C115.504 148.312 115.532 150.482 115.567 152.271C115.687 158.105 116.981 162.913 118.339 167.997C118.7 169.333 119.046 170.684 119.407 172.084C120.552 176.659 119.845 183.397 119.272 188.778C118.993 190.889 118.837 193.014 118.806 195.142C118.947 199.25 119.668 200.509 119.675 200.516C119.702 200.556 119.719 200.602 119.725 200.65C119.725 200.65 120.036 202.687 120.34 205.126C120.552 206.816 120.22 207.403 119.866 207.856C119.753 207.997 119.732 208.032 119.732 208.103C119.768 208.329 119.832 208.55 119.923 208.761C120.405 209.799 120.493 210.978 120.17 212.077C119.622 213.462 118.997 214.814 118.297 216.129C118.266 216.191 118.217 216.242 118.156 216.276C118.096 216.31 118.026 216.325 117.957 216.319L106.856 215.393C106.776 215.386 106.702 215.352 106.644 215.297C106.586 215.242 106.549 215.168 106.538 215.089C106.241 212.968 105.435 207.311 105.314 206.802C105.194 206.293 105.802 205.635 106.418 205.063C106.639 204.877 106.84 204.668 107.019 204.44C107.118 203.945 106.552 198.204 106.389 197.369L106.234 196.578C103.257 181.248 101.121 171.03 100.223 167.799C99.283 164.405 97.5223 156.485 96.299 150.921L97.2182 160.113C97.2748 160.997 98.6324 181.432 98.6324 182.81C98.6324 183.581 98.5829 187.506 98.5405 190.977C98.5405 193.806 98.4769 196.422 98.4769 196.839C98.4769 197.369 98.5829 199.201 98.6678 200.672C98.7385 201.902 98.7809 202.658 98.7809 202.856C98.8501 203.243 98.9398 203.625 99.0496 204.002C99.3745 204.944 99.5417 205.933 99.5446 206.929C99.4103 207.636 98.4486 208.188 97.8193 208.506C98.6042 209.298 100.322 211.228 100.322 213.032C100.282 213.774 100.084 214.499 99.7417 215.159C99.3991 215.818 98.9197 216.397 98.3355 216.857C98.2622 216.911 98.1708 216.934 98.0809 216.921ZM85.8836 212.24C86.6027 212.213 87.3207 212.314 88.0049 212.537C89.5251 213.145 96.4051 215.591 96.49 215.619L97.9961 216.164C98.4554 215.774 98.8307 215.294 99.0993 214.754C99.368 214.215 99.5242 213.626 99.5587 213.024C99.5587 211.045 96.9283 208.683 96.9071 208.662C96.8621 208.622 96.8281 208.571 96.8083 208.514C96.7885 208.457 96.7836 208.396 96.794 208.336C96.8031 208.277 96.8274 208.221 96.8646 208.174C96.9018 208.127 96.9505 208.09 97.0061 208.068C97.6779 207.785 98.7173 207.184 98.7951 206.788C98.7414 205.899 98.5775 205.02 98.3072 204.172C98.1707 203.741 98.0736 203.298 98.0173 202.849C98.0173 202.666 97.9607 201.711 97.9041 200.728C97.8122 199.173 97.7132 197.405 97.7132 196.853C97.7132 196.436 97.7132 193.841 97.7769 190.977C97.8193 187.513 97.8688 183.588 97.8688 182.825C97.8688 181.467 96.49 160.403 96.4546 160.198L94.9202 144.797C94.9061 144.704 94.9299 144.608 94.9863 144.532C95.0426 144.455 95.1269 144.405 95.2207 144.391C95.3145 144.377 95.41 144.4 95.4863 144.457C95.5625 144.513 95.6132 144.597 95.6273 144.691C95.6626 144.861 99.3466 162.163 100.867 167.636C101.765 170.889 103.907 181.128 106.884 196.471L107.04 197.263C107.153 197.829 107.846 204.08 107.641 204.688C107.45 205.046 107.182 205.358 106.856 205.6C106.58 205.855 105.944 206.449 105.958 206.654C106.099 207.219 106.955 213.321 107.153 214.729L117.759 215.612C118.406 214.395 118.982 213.141 119.485 211.858C119.745 210.916 119.657 209.912 119.237 209.029C119.11 208.745 119.032 208.442 119.004 208.131C119.005 207.868 119.106 207.616 119.287 207.424C119.506 207.149 119.81 206.76 119.619 205.225C119.343 203.026 119.067 201.174 119.011 200.82C118.954 200.467 118.212 199.024 118.077 195.163C118.108 193.009 118.266 190.858 118.551 188.722C119.11 183.376 119.817 176.701 118.7 172.268C118.353 170.854 117.993 169.524 117.639 168.195C116.225 163.069 114.959 158.218 114.811 152.3C114.811 150.511 114.747 148.34 114.712 146.028C114.62 138.957 114.507 130.153 114.04 127.382C113.432 123.705 112.442 112.193 112.435 112.08L112.102 110.666L73.9974 108.092C72.8828 116.7 72.8971 125.417 74.0398 134.021C76.0197 147.272 78.1763 156.874 78.1975 156.966C78.3248 157.518 81.2946 170.458 81.5986 174.75C81.7542 176.871 82.5391 183.496 83.3027 189.888C84.533 200.219 84.7169 202.22 84.6674 202.482C84.4222 203.192 84.2724 203.931 84.2219 204.681C84.2219 205.169 83.7836 205.614 83.3239 206.095C82.8643 206.576 82.4047 207.035 82.5108 207.354C82.8219 209.038 83.0227 210.741 83.1118 212.452C84.0296 212.316 84.9558 212.245 85.8836 212.24Z" fill="#263238"/>
<path d="M94.8425 143.383C94.7596 143.384 94.6791 143.356 94.6155 143.302C94.5519 143.249 94.5095 143.175 94.496 143.093L92.5444 132.02L86.8524 129.319C86.8102 129.3 86.7722 129.273 86.7407 129.239C86.7092 129.205 86.6848 129.165 86.669 129.122C86.6532 129.078 86.6462 129.032 86.6486 128.986C86.6509 128.939 86.6625 128.894 86.6827 128.852C86.7225 128.769 86.7939 128.704 86.8812 128.672C86.9685 128.64 87.0649 128.644 87.1493 128.683L93.0111 131.455C93.0624 131.479 93.1072 131.516 93.1416 131.562C93.176 131.607 93.1991 131.66 93.2091 131.716L95.2102 142.966C95.2194 143.012 95.2192 143.059 95.2099 143.104C95.2005 143.15 95.1821 143.193 95.1557 143.231C95.1293 143.269 95.0955 143.302 95.0563 143.327C95.017 143.352 94.9732 143.369 94.9273 143.376L94.8425 143.383Z" fill="#263238"/>
<path d="M108.1 212.714C107.57 214.677 106.86 216.587 105.979 218.42C104.897 220.265 103.2 221.347 102.741 222.422C102.447 223.421 102.341 224.467 102.429 225.505H118.926C118.926 225.505 120.156 223.963 120.156 220.265C120.156 216.567 118.742 214.715 117.54 212.558C116.338 210.401 112.11 208.867 108.1 212.714Z" fill="white"/>
<path d="M118.891 225.837H102.394C102.305 225.837 102.219 225.804 102.154 225.744C102.088 225.683 102.048 225.601 102.041 225.512C101.946 224.418 102.061 223.317 102.38 222.266C102.732 221.617 103.194 221.033 103.745 220.541C104.468 219.847 105.102 219.066 105.633 218.215C106.511 216.41 107.221 214.528 107.754 212.593C107.771 212.534 107.802 212.481 107.846 212.438C109.769 210.585 111.996 209.73 114.111 210.041C114.859 210.129 115.579 210.383 116.217 210.785C116.856 211.186 117.397 211.724 117.802 212.36L118.247 213.117C119.343 214.976 120.474 216.892 120.474 220.244C120.474 224.027 119.216 225.639 119.159 225.71C119.126 225.749 119.085 225.78 119.038 225.802C118.992 225.824 118.942 225.836 118.891 225.837ZM102.734 225.13H118.707C118.975 224.699 119.774 223.164 119.774 220.244C119.774 217.083 118.735 215.33 117.653 213.477L117.201 212.713C116.85 212.17 116.383 211.711 115.835 211.368C115.286 211.026 114.668 210.809 114.026 210.734C112.152 210.472 110.172 211.229 108.419 212.855C107.88 214.817 107.155 216.723 106.255 218.547C105.696 219.445 105.026 220.27 104.261 221.001C103.775 221.436 103.362 221.947 103.038 222.514C102.774 223.359 102.671 224.247 102.734 225.13Z" fill="#263238"/>
<path d="M119.767 223.412L119.506 223.348H102.444C102.352 224.051 102.329 224.762 102.373 225.469H118.869C119.294 224.845 119.599 224.148 119.767 223.412Z" fill="white"/>
<path d="M118.891 225.837H102.394C102.305 225.837 102.219 225.804 102.154 225.744C102.088 225.683 102.048 225.6 102.041 225.512C101.994 224.766 102.018 224.018 102.111 223.277C102.125 223.193 102.168 223.116 102.232 223.06C102.297 223.005 102.379 222.974 102.465 222.973H119.506H119.591L119.845 223.03C119.891 223.04 119.934 223.06 119.972 223.088C120.009 223.116 120.041 223.152 120.064 223.192C120.089 223.232 120.105 223.276 120.112 223.322C120.12 223.369 120.118 223.416 120.107 223.461C119.941 224.256 119.624 225.012 119.173 225.688C119.141 225.733 119.098 225.77 119.049 225.796C119 225.821 118.946 225.835 118.891 225.837ZM102.733 225.13H118.707C118.973 224.687 119.179 224.212 119.322 223.716H102.776C102.727 224.185 102.713 224.658 102.733 225.13Z" fill="#263238"/>
<path d="M84.321 41.4564C84.321 41.4564 81.2664 44.5888 78.8552 45.9181C76.444 47.2474 72.4489 48.4565 71.7206 49.9061C70.9923 51.3556 70.1509 61.3892 71.2398 66.5863C71.8487 69.5776 72.6542 72.5255 73.651 75.4108L74.4995 94.6296L73.1701 109.379C73.1701 109.379 87.7928 111.31 97.1052 112.399C106.418 113.488 112.817 112.038 112.817 112.038C112.817 112.038 113.298 103.214 113.418 98.6034C113.538 93.9932 113.757 72.3986 113.757 72.3986L121.125 84.7232C121.125 84.7232 124.993 85.9324 127.652 85.0909C130.31 84.2495 132.007 82.9131 131.399 79.8938C130.791 76.8745 122.85 58.9639 122.85 58.9639C122.85 58.9639 119.704 49.5384 117.286 47.1201C114.867 44.7019 111.629 44.1009 108.093 43.6201C104.558 43.1392 98.8093 40.7422 98.8093 40.7422L84.321 41.4564Z" fill="#C2F33A"/>
<path d="M103.964 113.155C101.658 113.152 99.3536 113.017 97.0627 112.752C87.8705 111.67 73.2691 109.747 73.1277 109.726C73.0363 109.715 72.9528 109.669 72.8947 109.598C72.8366 109.527 72.8086 109.436 72.8165 109.344L74.16 94.6011L73.3186 75.5096C72.3284 72.6247 71.523 69.6796 70.9074 66.6922C69.8397 61.5941 70.6104 51.3908 71.4165 49.7786C71.961 48.6897 73.9338 47.82 76.0268 46.9008C76.953 46.4907 77.9217 46.0664 78.6925 45.6351C81.04 44.3482 84.0452 41.2653 84.0805 41.237C84.1419 41.1731 84.2254 41.1351 84.3138 41.1309L98.8163 40.4238C98.8652 40.4131 98.9159 40.4131 98.9648 40.4238C99.0213 40.4238 104.742 42.7996 108.157 43.2522C111.827 43.7613 115.065 44.3765 117.547 46.8583C120.029 49.3402 123.062 58.4546 123.204 58.8789C123.515 59.586 131.194 76.8036 131.795 79.83C132.502 83.4432 130.048 84.723 127.814 85.4301C125.078 86.2998 121.231 85.119 121.068 85.0695C120.987 85.0415 120.917 84.9867 120.87 84.914L114.146 73.6571C114.089 78.3451 113.899 94.7425 113.792 98.6386C113.672 103.185 113.191 111.981 113.191 112.073C113.188 112.15 113.159 112.224 113.11 112.283C113.06 112.342 112.991 112.383 112.916 112.399C109.965 112.951 106.966 113.205 103.964 113.155ZM73.559 109.068C75.8076 109.365 88.7332 111.062 97.1475 112.045C102.247 112.695 107.415 112.592 112.484 111.741C112.569 110.221 112.965 102.69 113.071 98.6103C113.191 94.0708 113.432 72.6035 113.439 72.3843C113.442 72.3093 113.469 72.2371 113.516 72.1784C113.563 72.1197 113.627 72.0774 113.699 72.0577C113.772 72.038 113.849 72.0419 113.919 72.0689C113.989 72.0958 114.049 72.1444 114.089 72.2075L121.387 84.419C122.094 84.6099 125.318 85.4584 127.574 84.7442C130.558 83.7967 131.576 82.4108 131.109 79.9502C130.522 77.0016 122.624 59.2961 122.553 59.1193C122.483 58.9425 119.4 49.7079 117.066 47.3816C114.733 45.0553 111.622 44.4613 108.079 43.9734C104.742 43.5138 99.4951 41.3996 98.7809 41.1097L84.5048 41.8168C82.867 43.5005 81.0373 44.9861 79.0531 46.2432C78.247 46.6886 77.2712 47.1129 76.3237 47.5301C74.5277 48.322 72.4984 49.22 72.0812 50.0827C71.3741 51.4191 70.5539 61.3961 71.6286 66.5296C72.2374 69.504 73.0405 72.4353 74.0328 75.3046V75.4107L74.8671 94.6152L73.559 109.068Z" fill="#263238"/>
<path d="M74.0469 17.4929C74.0469 17.4929 74.351 27.9649 74.754 29.6761C75.1571 31.3872 77.9712 34.9085 79.1804 36.5207C80.3895 38.1328 82.9067 38.5359 83.2108 38.5359C83.5148 38.5359 84.3209 39.745 84.3209 41.4562C84.3209 43.1673 83.6138 43.4714 83.7128 48.3998C83.7818 51.4781 84.0511 54.5487 84.5189 57.592C84.5189 57.592 87.4392 55.6828 92.4737 50.2453C97.5082 44.8078 98.8375 40.7774 98.8375 40.7774C97.5476 39.5758 96.5489 38.0958 95.9172 36.45C95.2101 34.1307 95.3162 28.2901 95.3162 28.2901C95.3162 28.2901 98.9365 25.4618 99.1416 23.8638C99.3466 22.2657 97.8334 19.2323 97.8334 19.2323C97.8334 19.2323 96.0798 13.1584 94.1848 10.1745C92.2898 7.19057 91.9716 5.64204 85.629 7.34613C79.2864 9.05022 77.0662 9.46741 75.0227 10.9735C73.8777 11.7675 73.0569 12.9472 72.7105 14.2968L74.0469 17.4929Z" fill="white"/>
<path d="M84.519 57.9171C84.4724 57.9277 84.4241 57.9277 84.3775 57.9171C84.3238 57.8947 84.2767 57.8589 84.2408 57.8131C84.2049 57.7673 84.1813 57.713 84.1725 57.6554C83.7051 54.6119 83.4335 51.5416 83.3593 48.4633C83.2592 46.6383 83.3971 44.808 83.7695 43.0187C83.8915 42.5256 83.9579 42.0204 83.9674 41.5126C84.0188 40.5842 83.7296 39.6691 83.1543 38.9387C82.631 38.9387 80.1562 38.465 78.9117 36.8175L78.3814 36.1104C76.9672 34.2366 74.7894 31.4012 74.4217 29.8385C74.0257 28.1627 73.7146 18.6099 73.7146 17.6483L72.4136 14.4169C72.3926 14.3549 72.3926 14.2878 72.4136 14.2259C72.769 12.7878 73.6394 11.5299 74.8601 10.6905C76.6137 9.37529 78.438 8.89447 82.8432 7.72777L85.5584 7.02068C91.4272 5.4368 92.3606 6.51158 94.0859 9.31873L94.5031 10.0258C96.4264 13.0592 98.1022 18.9352 98.1729 19.1826C98.2082 19.2463 99.7073 22.2585 99.4951 23.9555C99.2972 25.5323 96.4051 27.9294 95.6627 28.5162C95.6627 29.4779 95.6627 34.3709 96.2567 36.3932C96.872 37.9797 97.839 39.4061 99.085 40.5651C99.1348 40.6121 99.1704 40.6721 99.1879 40.7383C99.2054 40.8045 99.2041 40.8743 99.184 40.9398C99.1275 41.1024 97.7698 45.0975 92.7636 50.535C87.7574 55.9726 84.8584 57.8605 84.7382 57.9383C84.665 57.9588 84.5868 57.9513 84.519 57.9171ZM73.1065 14.233L74.3722 17.3584C74.3827 17.3977 74.3827 17.4392 74.3722 17.4786C74.3722 17.5846 74.6762 27.9364 75.0793 29.591C75.4187 31.0052 77.6036 33.8831 78.9117 35.6013L79.4491 36.3084C80.5522 37.7791 82.921 38.1822 83.1967 38.1822C83.8402 38.1822 84.6604 39.7236 84.6604 41.456C84.6528 42.0138 84.5816 42.5689 84.4482 43.1106C84.0827 44.8459 83.9495 46.6221 84.0523 48.3926C84.1195 51.2536 84.3556 54.1081 84.7594 56.9413C87.4362 54.8423 89.923 52.5117 92.1909 49.9764C96.4829 45.3379 98.0456 41.7247 98.385 40.8479C97.1254 39.6393 96.158 38.1593 95.5566 36.5205C94.8496 34.18 94.9344 28.5021 94.9415 28.2546C94.9412 28.2024 94.9532 28.1509 94.9766 28.1042C94.9999 28.0575 95.0339 28.017 95.0758 27.9859C96.0516 27.2223 98.6113 24.9879 98.7668 23.7858C98.9577 22.3009 97.5082 19.3877 97.4941 19.3594C97.4799 19.3311 95.7476 13.2714 93.8879 10.3299L93.4636 9.62278C91.9434 7.15503 91.3424 6.12975 85.721 7.64292L83.0058 8.35002C78.6925 9.48843 76.9036 9.96218 75.2278 11.1784C74.1966 11.9284 73.4491 13.0048 73.1065 14.233Z" fill="#263238"/>
<path d="M83.2108 38.5358C84.2262 38.4279 85.2344 38.2603 86.23 38.0337C87.3402 37.7297 88.8463 37.1216 88.8463 37.1216L84.3209 41.4561L83.2108 38.5358Z" fill="#263238"/>
<path d="M84.3209 41.8097H84.2431C84.1861 41.7965 84.1331 41.7697 84.0888 41.7315C84.0444 41.6933 84.0101 41.6449 83.9886 41.5905L82.8785 38.6702C82.8557 38.6215 82.8439 38.5684 82.8439 38.5146C82.8439 38.4609 82.8557 38.4078 82.8785 38.3591C82.9065 38.3114 82.9454 38.2711 82.9922 38.2416C83.0389 38.2121 83.0921 38.1941 83.1472 38.1893C84.1443 38.0881 85.1339 37.9227 86.1099 37.6944C87.1846 37.4045 88.6766 36.8105 88.6907 36.8035C88.766 36.7725 88.8497 36.7689 88.9273 36.7935C89.0048 36.8181 89.0713 36.8692 89.115 36.9378C89.16 37.0074 89.1797 37.0904 89.1707 37.1729C89.1617 37.2553 89.1245 37.3321 89.0655 37.3903L84.533 41.7177C84.4749 41.7718 84.4001 41.8042 84.3209 41.8097ZM83.6987 38.8328L84.4623 40.8339L87.3755 38.0479C87.022 38.1681 86.6685 38.2813 86.322 38.3732C85.4582 38.5818 84.5819 38.7353 83.6987 38.8328Z" fill="#263238"/>
<path d="M81.7965 21.3674C81.7194 21.3658 81.6448 21.3395 81.5837 21.2924C81.5227 21.2453 81.4783 21.1799 81.4571 21.1057C81.4333 21.0157 81.4459 20.92 81.4922 20.8392C81.5385 20.7585 81.6148 20.6992 81.7046 20.6744C81.8389 20.632 85.0845 19.7411 86.9017 20.6744C86.9424 20.6959 86.9784 20.7253 87.0076 20.7609C87.0368 20.7965 87.0586 20.8375 87.0718 20.8816C87.085 20.9257 87.0892 20.972 87.0843 21.0178C87.0794 21.0635 87.0653 21.1079 87.0431 21.1482C87.0222 21.1895 86.9933 21.2261 86.958 21.2561C86.9227 21.286 86.8817 21.3085 86.8376 21.3224C86.7934 21.3362 86.7469 21.3411 86.7009 21.3367C86.6548 21.3322 86.6101 21.3186 86.5694 21.2966C84.9996 20.4694 81.9238 21.2966 81.8955 21.2966L81.7965 21.3674Z" fill="#263238"/>
<path d="M74.8671 21.9685C74.7882 21.97 74.711 21.9452 74.6479 21.8978C74.5755 21.8394 74.5285 21.7553 74.5166 21.6631C74.5048 21.5708 74.529 21.4776 74.5842 21.4028C75.5388 20.1583 77.0944 20.6957 77.7803 21.12C77.8591 21.1715 77.9141 21.2523 77.9333 21.3445C77.9526 21.4366 77.9344 21.5326 77.8828 21.6114C77.8313 21.6902 77.7505 21.7452 77.6583 21.7644C77.5662 21.7837 77.4702 21.7655 77.3914 21.7139C77.3348 21.7139 75.9772 20.8018 75.15 21.8341C75.1163 21.8768 75.0732 21.911 75.0242 21.9343C74.9751 21.9576 74.9214 21.9693 74.8671 21.9685Z" fill="#263238"/>
<path d="M78.254 24.0545C78.3318 24.7191 78.1126 25.2919 77.7591 25.3343C77.4055 25.3767 77.0519 24.8747 76.9742 24.21C76.8964 23.5454 77.1156 22.9656 77.4691 22.9231C77.8227 22.8807 78.1691 23.3898 78.254 24.0545Z" fill="#263238"/>
<path d="M85.8623 23.659C85.9401 24.3236 85.7209 24.8964 85.3674 24.9388C85.0138 24.9812 84.6603 24.4721 84.5825 23.8074C84.5047 23.1428 84.7239 22.57 85.0775 22.5276C85.431 22.4852 85.7845 22.9943 85.8623 23.659Z" fill="#263238"/>
<path d="M88.6484 11.2491C88.6484 11.2491 85.2261 13.8654 84.116 14.0775C83.0058 14.2896 79.0814 12.9744 77.6743 12.8684C76.2672 12.7623 73.6439 14.8836 73.6439 14.8836L74.047 17.5069C74.047 17.5069 70.2216 16.5947 69.4155 15.0886C68.6094 13.5825 71.3247 11.5532 71.2257 11.0582C71.1267 10.5633 69.7196 8.63997 70.7237 8.03895C72.4953 7.26169 74.3109 6.58881 76.1612 6.02375C76.1612 6.02375 78.4804 1.19432 80.0855 1.07411C81.6419 1.09741 83.1927 1.26787 84.717 1.58322C85.1926 1.15113 85.7516 0.82094 86.3597 0.612998C86.9677 0.405056 87.6118 0.323754 88.2524 0.37409C90.1616 0.671068 92.9829 4.19945 92.9829 4.19945C92.9829 4.19945 97.2254 3.79641 98.0173 5.61363C98.8093 7.43085 99.6295 9.85618 99.0285 11.7582C98.5136 13.7137 98.1099 15.6967 97.8194 17.6978V19.211C96.9179 19.361 96.0594 19.7035 95.3021 20.215C94.496 20.9221 94.595 21.5232 93.994 22.0252C93.393 22.5272 93.0818 22.5343 92.6788 22.3292C92.2758 22.1242 92.0778 21.5232 91.8798 20.314C91.6818 19.1049 91.4767 18.8079 90.6707 18.5039C89.6359 18.1182 88.7043 17.4987 87.9484 16.6937C87.1423 15.7816 86.1382 14.9826 86.7392 14.1765C87.3403 13.3704 88.6484 11.2491 88.6484 11.2491Z" fill="#263238"/>
<path d="M93.1242 22.8031C92.9116 22.7975 92.7032 22.7418 92.5162 22.6404C91.9505 22.3576 91.7313 21.6222 91.5191 20.3636C91.3282 19.2252 91.1726 19.0696 90.5363 18.8292C89.4597 18.4179 88.492 17.7647 87.7079 16.9201L87.3332 16.51C86.6261 15.7463 85.7917 14.8695 86.4776 13.9574C86.7109 13.6463 87.0503 13.1371 87.3827 12.628C86.4185 13.3779 85.3487 13.9807 84.2078 14.417C83.5007 14.5443 81.9522 14.1624 80.3188 13.7665C79.4506 13.5223 78.5671 13.3357 77.6743 13.2079C76.7126 13.1442 74.8459 14.3958 74.054 15.018L74.4217 17.4363C74.4302 17.4934 74.4245 17.5518 74.4052 17.6062C74.386 17.6607 74.3536 17.7096 74.3111 17.7487C74.2685 17.7877 74.217 17.8158 74.1611 17.8304C74.1052 17.8449 74.0466 17.8456 73.9904 17.8322C73.5873 17.7403 69.9882 16.8423 69.1327 15.2372C68.4821 14.021 69.6206 12.6563 70.3771 11.7512C70.5808 11.537 70.7588 11.2997 70.9075 11.0442C70.9075 11.0442 70.7731 10.7896 70.667 10.5916C70.2499 9.75018 69.5357 8.34307 70.568 7.72083C72.3138 6.94322 74.1062 6.27491 75.9349 5.71976C76.4652 4.63792 78.445 0.826704 80.0926 0.72064C81.6226 0.729664 83.148 0.890724 84.6462 1.20146C85.1495 0.767368 85.7351 0.439097 86.368 0.23622C87.001 0.0333428 87.6683 -0.0399835 88.3301 0.0206165C90.1403 0.310524 92.5727 3.13889 93.1596 3.83183C94.0929 3.76113 97.5577 3.64799 98.3638 5.46521C99.5587 8.15216 99.8911 10.2451 99.382 11.829C98.8781 13.7671 98.4792 15.731 98.187 17.712V19.1757C98.1864 19.2592 98.1562 19.3398 98.1019 19.4033C98.0475 19.4667 97.9725 19.5088 97.89 19.5222C97.0531 19.6617 96.2553 19.9774 95.5496 20.4485C95.2472 20.7001 95.0055 21.0168 94.8425 21.3747C94.6999 21.7158 94.4824 22.0203 94.2061 22.2657C93.9194 22.5658 93.5366 22.756 93.1242 22.8031ZM88.6483 10.8815C88.6914 10.8806 88.7342 10.8883 88.7742 10.9041C88.8143 10.9199 88.8508 10.9435 88.8817 10.9735C88.9436 11.028 88.984 11.1028 88.9957 11.1844C89.0073 11.2661 88.9895 11.3492 88.9453 11.4189C88.8958 11.5038 87.6231 13.5402 87.015 14.3675C86.718 14.7635 87.0503 15.1948 87.814 16.015C87.9483 16.1493 88.0756 16.2908 88.21 16.4322C88.9269 17.1922 89.8069 17.7797 90.7838 18.1504C91.7737 18.5252 92.0141 18.9989 92.198 20.2363C92.3252 21.0212 92.502 21.8344 92.8131 21.9899C93.1242 22.1455 93.1949 22.1879 93.7394 21.7354C93.9383 21.5519 94.0951 21.3276 94.199 21.0778C94.392 20.6367 94.6792 20.2433 95.0405 19.9252C95.7551 19.4126 96.5732 19.0626 97.4375 18.8999V17.6767C97.7257 15.6391 98.1342 13.6204 98.6608 11.631C99.1062 10.2169 98.7739 8.22994 97.6708 5.73391C97.091 4.43993 94.1354 4.43286 92.9899 4.53186C92.9315 4.53813 92.8726 4.52978 92.8183 4.50756C92.7639 4.48534 92.716 4.44994 92.6788 4.40458C91.9222 3.45707 89.6241 0.939835 88.1675 0.706495C86.4564 0.43073 84.9573 1.80956 84.9432 1.8237C84.9021 1.86226 84.8526 1.89065 84.7986 1.90662C84.7445 1.92258 84.6875 1.92567 84.6321 1.91562C83.1376 1.60871 81.618 1.44065 80.0926 1.41359C79.0673 1.47722 77.3208 4.35508 76.4581 6.15109C76.4368 6.19436 76.4071 6.23292 76.3707 6.2645C76.3342 6.29607 76.2918 6.32003 76.246 6.33494C74.4234 6.89293 72.6339 7.55393 70.8862 8.31479C70.4125 8.59762 70.9357 9.63704 71.2539 10.2593C71.3806 10.4824 71.4803 10.7197 71.5509 10.9664C71.6216 11.3058 71.3388 11.6735 70.8438 12.1967C70.2074 12.9604 69.2528 14.1059 69.6771 14.8978C70.1933 15.8665 72.3287 16.6514 73.5661 17.0191L73.2479 14.9332C73.2379 14.8715 73.2443 14.8082 73.2667 14.7498C73.2891 14.6914 73.3265 14.64 73.3752 14.6008C73.651 14.3816 76.1399 12.3876 77.6177 12.5149C78.5511 12.6407 79.4747 12.8297 80.3825 13.0806C81.733 13.4129 83.4088 13.8301 83.9745 13.724C84.724 13.5897 87.0079 12.0058 88.3514 10.9735C88.3906 10.9365 88.4378 10.909 88.4892 10.8931C88.5407 10.8772 88.5951 10.8732 88.6483 10.8815Z" fill="#263238"/>
<path d="M77.1581 82.6651C77.1581 82.6651 82.235 71.783 82.7229 71.783C83.2108 71.783 89.8503 74.4416 89.9706 75.0497C89.8517 77.0221 89.5295 78.977 89.0089 80.8832C88.7685 81.2509 88.3018 82.3327 87.6796 82.5802C87.0573 82.8277 85.0209 83.2873 85.0209 83.2873C84.7333 84.1905 84.1344 84.9622 83.331 85.4652C82.0415 85.961 80.7055 86.3258 79.343 86.5541C79.343 86.5541 75.1004 93.3209 74.5065 94.6503C73.9125 95.9796 71.4872 97.917 68.8498 96.8281C66.2123 95.7392 63.5325 90.3017 65.4628 86.6743C66.0558 85.4463 66.9822 84.4098 68.1363 83.6833C69.2904 82.9569 70.6256 82.5697 71.9892 82.5661C73.4105 82.5449 77.1581 82.6651 77.1581 82.6651Z" fill="white"/>
<path d="M70.4053 97.4787C69.8154 97.4772 69.2315 97.3594 68.6871 97.1322C67.2234 96.5312 65.7739 94.7493 64.989 92.5785C64.5088 91.435 64.3201 90.1901 64.4399 88.9556C64.5598 87.7211 64.9844 86.5358 65.6756 85.506C66.3668 84.4762 67.303 83.6342 68.4001 83.0556C69.4971 82.4771 70.7207 82.1801 71.9609 82.1914C73.1913 82.1914 76.0974 82.2762 76.9106 82.3045C81.9875 71.4294 82.4259 71.4294 82.6946 71.4294C82.7582 71.4294 90.0837 73.9325 90.2887 74.9649C90.1844 77.0197 89.8427 79.0555 89.2705 81.0317C89.221 81.1095 89.1644 81.2156 89.0937 81.3358C88.8216 81.9654 88.3625 82.4961 87.7785 82.856C87.2624 83.0611 85.7845 83.4288 85.2542 83.5631C84.9289 84.4827 84.2907 85.2586 83.4512 85.7551C82.1862 86.2587 80.8704 86.6238 79.5268 86.844C78.9329 87.7986 75.3338 93.5755 74.7964 94.7705C74.3641 95.5656 73.7314 96.2338 72.9612 96.7088C72.1909 97.1839 71.3098 97.4493 70.4053 97.4787ZM71.9609 82.8985C70.8359 82.8905 69.7265 83.1626 68.7329 83.6902C67.7392 84.2178 66.8924 84.9843 66.2688 85.9208C65.6452 86.8572 65.2644 87.9341 65.1608 89.0544C65.0571 90.1747 65.2338 91.3031 65.6749 92.3381C66.382 94.2968 67.7042 95.9584 68.977 96.4746C69.9417 96.8323 71.0035 96.8274 71.9648 96.4606C72.9261 96.0937 73.7213 95.3901 74.2024 94.4806C74.8034 93.1513 78.8833 86.6248 79.0601 86.342C79.0845 86.2999 79.1183 86.2641 79.1587 86.2371C79.1992 86.2101 79.2453 86.1928 79.2935 86.1864C80.6237 85.9612 81.9287 85.606 83.1895 85.1258C83.9084 84.6678 84.4439 83.9722 84.7027 83.1601C84.7216 83.1027 84.755 83.0511 84.7996 83.0102C84.8441 82.9694 84.8984 82.9406 84.9573 82.9267C84.9573 82.9267 86.9937 82.4459 87.5664 82.2197C87.92 82.0782 88.2735 81.4065 88.5281 81.0105C88.6058 80.8691 88.6765 80.7489 88.7331 80.664C89.1927 78.8616 89.5002 77.0238 89.6523 75.1699C89.0866 74.576 83.8896 72.4264 82.8431 72.1719C82.136 73.0345 79.251 79.066 77.5045 82.8207C77.4778 82.8855 77.4314 82.9403 77.3717 82.9771C77.312 83.014 77.2421 83.031 77.1722 83.0257C77.1086 83.0045 73.3893 82.8985 71.9609 82.8985Z" fill="#263238"/>
<path d="M71.9609 82.5454C70.5972 82.549 69.262 82.9362 68.1079 83.6626C66.9538 84.3891 66.0274 85.4256 65.4344 86.6536C63.504 90.281 66.1415 95.7185 68.8214 96.8074C71.5013 97.8963 73.8983 95.9589 74.4781 94.6296C72.5478 94.9902 67.7112 94.6296 68.1921 88.9729C68.6729 83.3161 71.9609 82.5454 71.9609 82.5454Z" fill="#C2F33A"/>
<path d="M70.4053 97.4786C69.8154 97.4771 69.2315 97.3594 68.6871 97.1322C67.2234 96.5311 65.7739 94.7493 64.989 92.5785C64.5088 91.435 64.3201 90.1901 64.4399 88.9556C64.5598 87.7211 64.9844 86.5358 65.6756 85.506C66.3668 84.4762 67.303 83.6342 68.4001 83.0556C69.4971 82.4771 70.7207 82.1801 71.9609 82.1913C72.0547 82.181 72.1487 82.2084 72.2223 82.2674C72.2959 82.3264 72.3431 82.4122 72.3534 82.506C72.3637 82.5998 72.3363 82.6938 72.2773 82.7674C72.2183 82.841 72.1325 82.8881 72.0387 82.8984C71.9044 82.9338 69.0194 83.6833 68.5669 88.9935C68.4043 90.8815 68.8426 92.3027 69.8609 93.2361C71.275 94.5018 73.3963 94.5018 74.4358 94.3109C74.4996 94.2984 74.5657 94.3038 74.6268 94.3265C74.6878 94.3491 74.7414 94.3882 74.7816 94.4394C74.8218 94.4906 74.8471 94.5519 74.8547 94.6166C74.8623 94.6812 74.8519 94.7467 74.8246 94.8058C74.3854 95.5983 73.7464 96.2621 72.971 96.731C72.1957 97.1999 71.3112 97.4577 70.4053 97.4786ZM70.2781 83.1106C69.3018 83.3687 68.3922 83.8329 67.6104 84.472C66.8286 85.1111 66.1927 85.9103 65.7456 86.8157C65.3512 87.6804 65.1395 88.6171 65.1237 89.5673C65.1079 90.5175 65.2883 91.4608 65.6537 92.3381C66.3607 94.2967 67.683 95.9584 68.9558 96.4746C69.81 96.7918 70.7436 96.8255 71.6185 96.5708C72.4934 96.3161 73.263 95.7865 73.8135 95.0604C72.2203 95.2082 70.6323 94.7288 69.3871 93.724C68.1921 92.6492 67.683 91.03 67.8598 88.9087C68.1356 85.6914 69.2811 83.9944 70.2781 83.1106Z" fill="#263238"/>
<path d="M89.3696 78.055C89.3126 78.0554 89.2565 78.0407 89.207 78.0126L83.4017 74.9933C83.3183 74.9502 83.2554 74.8757 83.2269 74.7862C83.1983 74.6967 83.2066 74.5995 83.2497 74.516C83.2928 74.4326 83.3673 74.3697 83.4568 74.3412C83.5463 74.3127 83.6436 74.3209 83.727 74.364L89.5322 77.3904C89.6011 77.4275 89.6557 77.4865 89.6874 77.558C89.7192 77.6295 89.7264 77.7095 89.7078 77.7855C89.6892 77.8616 89.6459 77.9292 89.5847 77.978C89.5235 78.0268 89.4478 78.0539 89.3696 78.055Z" fill="#263238"/>
<path d="M85.8623 79.7666L81.6339 78.7979L80.0641 100.916L108.949 108.411L110.038 87.7426L85.8623 79.7666Z" fill="white"/>
<path d="M108.949 108.764H108.857L79.9722 101.269C79.8926 101.248 79.8229 101.199 79.7751 101.132C79.7274 101.065 79.7045 100.983 79.7106 100.901L81.2804 78.762C81.2831 78.7117 81.2972 78.6626 81.3217 78.6185C81.3462 78.5743 81.3805 78.5364 81.4218 78.5075C81.4626 78.4765 81.5097 78.4548 81.5597 78.4438C81.6098 78.4328 81.6616 78.4328 81.7117 78.4438L85.9542 79.4126H85.9896L110.158 87.3886C110.232 87.4119 110.297 87.4592 110.342 87.5232C110.387 87.5871 110.409 87.6641 110.405 87.7421L109.302 108.46C109.3 108.513 109.285 108.565 109.26 108.612C109.234 108.658 109.198 108.698 109.154 108.729C109.09 108.76 109.019 108.773 108.949 108.764ZM80.4319 100.682L108.616 107.993L109.67 88.0249L85.7704 80.1409L81.9521 79.2711L80.4319 100.682Z" fill="#263238"/>
<path d="M83.8047 78.0693L79.3359 99.3457L108.949 108.411L112.817 87.014L83.8047 78.0693Z" fill="#263238"/>
<path d="M108.949 108.764H108.843L79.2299 99.6994C79.1463 99.6704 79.0761 99.6122 79.0319 99.5356C78.9877 99.459 78.9727 99.369 78.9895 99.2822L83.4583 78.0129C83.4689 77.9648 83.4893 77.9193 83.5182 77.8793C83.5471 77.8393 83.5839 77.8057 83.6263 77.7805C83.6687 77.7553 83.7159 77.7391 83.7648 77.7329C83.8137 77.7266 83.8634 77.7305 83.9108 77.7442L112.902 86.6889C112.984 86.7151 113.054 86.7705 113.098 86.8448C113.143 86.9191 113.158 87.007 113.142 87.092L109.295 108.46C109.288 108.509 109.269 108.555 109.241 108.596C109.213 108.636 109.176 108.67 109.133 108.694C109.079 108.734 109.016 108.759 108.949 108.764ZM79.7461 99.0984L108.673 107.958L112.414 87.2475L84.0593 78.522L79.7461 99.0984Z" fill="#263238"/>
<path d="M124.18 79.2785C122.852 79.6723 121.618 80.3314 120.552 81.2159C119.103 82.5452 112.456 89.7929 109.43 92.5718C106.403 95.3506 106.891 95.2375 104.593 96.1992L102.302 97.1467C102.302 97.1467 98.7667 95.8173 97.9465 96.0577C97.1262 96.2981 96.0161 96.7648 95.408 96.9063C94.7999 97.0477 92.6291 97.2669 92.0281 97.0264C91.4271 96.786 89.6098 97.7336 91.9079 98.8366C93.1766 99.4752 94.6068 99.7214 96.0161 99.5437C96.0161 99.5437 93.5978 102.563 92.6291 103.892C91.6604 105.222 92.1483 105.589 92.8696 105.71C93.5638 105.738 94.2582 105.657 94.9272 105.469C94.9272 105.469 96.6171 106.176 97.8262 106.551C98.743 106.954 99.7783 106.997 100.725 106.671C101.814 106.311 106.05 102.563 106.531 102.323C107.011 102.082 118.014 96.1567 120.192 94.7072C122.369 93.2577 132.155 85.515 132.757 84.1928C133.358 82.8705 132.757 81.6543 132.396 80.8058C131.934 79.9231 131.41 79.0747 130.826 78.2673" fill="#C2F33A"/>
<path d="M99.5375 107.286C98.92 107.258 98.3101 107.139 97.7274 106.932C96.6809 106.621 95.302 106.049 94.899 105.879C94.2099 106.074 93.4922 106.148 92.7777 106.098C92.5696 106.084 92.3683 106.019 92.1918 105.908C92.0153 105.796 91.8692 105.643 91.7666 105.462C91.5898 105.03 91.7666 104.479 92.311 103.729C93.0181 102.782 94.4323 100.958 95.196 99.9959C93.9928 99.9846 92.8072 99.7069 91.7242 99.1828C90.2605 98.4757 90.31 97.7686 90.4655 97.4221C90.6216 97.1337 90.871 96.9066 91.1728 96.7782C91.4746 96.6498 91.811 96.6275 92.1272 96.7151C93.1914 96.8227 94.2656 96.775 95.3161 96.5736C95.7406 96.4602 96.1584 96.3233 96.5677 96.1635C96.992 96.0079 97.4303 95.8453 97.8263 95.7322C98.689 95.4847 101.44 96.4746 102.267 96.7787L104.431 95.8665C105.664 95.4576 106.766 94.725 107.62 93.7453C108.008 93.3705 108.503 92.9038 109.161 92.2957C110.929 90.6694 113.983 87.4592 116.444 84.8854C118.176 83.0611 119.675 81.4843 120.284 80.9328C121.389 80.0106 122.672 79.3248 124.052 78.9176C124.099 78.905 124.147 78.9018 124.195 78.908C124.243 78.9141 124.289 78.9297 124.33 78.9536C124.372 78.9776 124.409 79.0095 124.438 79.0476C124.467 79.0857 124.489 79.1292 124.501 79.1757C124.514 79.2221 124.517 79.2705 124.511 79.3182C124.505 79.3659 124.489 79.4119 124.465 79.4536C124.441 79.4953 124.409 79.5319 124.371 79.5612C124.333 79.5906 124.29 79.6121 124.243 79.6247C122.972 80.0038 121.789 80.6337 120.764 81.4772C120.17 82.0217 118.643 83.5985 116.953 85.4016C114.492 87.9825 111.431 91.1997 109.642 92.8402C108.984 93.4483 108.496 93.915 108.107 94.2544C107.191 95.2902 106.018 96.0658 104.706 96.5029L102.444 97.4928C102.359 97.5249 102.266 97.5249 102.182 97.4928C100.768 96.9554 98.5546 96.2696 98.0526 96.411C97.6849 96.5171 97.2607 96.6726 96.8435 96.8282C96.4022 97.0071 95.9484 97.1537 95.4858 97.2666C95.0333 97.3585 92.6575 97.6696 91.9009 97.3656C91.7577 97.3488 91.6126 97.3709 91.4808 97.4293C91.3489 97.4878 91.2352 97.5805 91.1514 97.6979C91.0736 97.8605 91.3282 98.1858 92.0635 98.5323C93.2641 99.1394 94.6151 99.385 95.9525 99.2393C96.0241 99.2254 96.0983 99.2334 96.1652 99.2625C96.2321 99.2915 96.2886 99.3402 96.3273 99.402C96.3674 99.4615 96.3889 99.5317 96.3889 99.6035C96.3889 99.6753 96.3674 99.7455 96.3273 99.805C96.3273 99.805 93.902 102.838 92.9545 104.147C92.41 104.889 92.4737 105.151 92.4949 105.193C92.5161 105.235 92.6009 105.342 92.9686 105.398C93.6112 105.426 94.254 105.348 94.8707 105.165C94.9459 105.137 95.0288 105.137 95.104 105.165C95.104 105.165 96.7869 105.872 97.9324 106.232C98.7808 106.609 99.7392 106.654 100.619 106.36C101.263 106.148 103.448 104.38 104.713 103.326C105.241 102.86 105.796 102.425 106.375 102.025C106.821 101.806 117.823 95.8878 119.994 94.4382C122.164 92.9887 131.894 85.246 132.438 84.0652C132.983 82.8844 132.495 81.9439 132.141 81.1308L132.071 80.9681C131.622 80.1084 131.109 79.2835 130.536 78.5004C130.509 78.4624 130.49 78.4194 130.479 78.3739C130.469 78.3284 130.468 78.2813 130.476 78.2352C130.483 78.1892 130.5 78.1452 130.525 78.1058C130.55 78.0663 130.583 78.0322 130.621 78.0054C130.698 77.9517 130.792 77.9298 130.884 77.9443C130.977 77.9588 131.06 78.0086 131.116 78.0832C131.715 78.9119 132.252 79.784 132.721 80.6924L132.792 80.855C133.1 81.3857 133.286 81.9784 133.336 82.59C133.386 83.2016 133.299 83.8166 133.082 84.3905C132.375 85.8824 122.242 93.8089 120.354 95.0534C118.169 96.51 107.11 102.464 106.658 102.69C106.516 102.761 105.809 103.34 105.131 103.899C103.186 105.49 101.524 106.819 100.81 107.06C100.401 107.203 99.9712 107.28 99.5375 107.286Z" fill="#263238"/>
<path d="M109.43 92.5719C106.41 95.3579 106.891 95.2377 104.593 96.1993L102.302 97.1468C102.302 97.1468 98.7667 95.8175 97.9465 96.0579C97.1262 96.2983 96.0161 96.765 95.408 96.9064C94.7999 97.0478 92.6291 97.267 92.0281 97.0266C91.4271 96.7862 89.6098 97.7337 91.9079 98.8368C93.1766 99.4754 94.6068 99.7215 96.0161 99.5439C96.0161 99.5439 93.5978 102.563 92.6291 103.892C91.6604 105.222 92.1483 105.589 92.8696 105.71C93.5638 105.738 94.2582 105.657 94.9272 105.469C94.9272 105.469 96.6171 106.176 97.8262 106.551C98.743 106.954 99.7783 106.997 100.725 106.671C101.814 106.311 106.05 102.563 106.531 102.323C107.011 102.082 114.415 98.0802 118.289 95.8599C116.684 90.7335 114.754 88.9658 113.601 88.3718C112.018 90.0759 110.497 91.5962 109.43 92.5719Z" fill="white"/>
<path d="M99.5375 107.286C98.92 107.258 98.3101 107.139 97.7274 106.933C96.6809 106.621 95.302 106.049 94.899 105.879C94.2099 106.074 93.4922 106.148 92.7777 106.098C92.5696 106.084 92.3683 106.019 92.1918 105.908C92.0153 105.797 91.8692 105.643 91.7666 105.462C91.5898 105.031 91.7666 104.479 92.311 103.729C93.0181 102.782 94.4323 100.958 95.196 99.996C93.9928 99.9847 92.8072 99.707 91.7242 99.1829C90.2605 98.4758 90.31 97.7687 90.4655 97.4222C90.6216 97.1338 90.871 96.9067 91.1728 96.7783C91.4746 96.6499 91.811 96.6276 92.1272 96.7151C93.1914 96.8228 94.2656 96.7751 95.3161 96.5737C95.7406 96.4603 96.1584 96.3234 96.5677 96.1636C96.992 96.008 97.4303 95.8454 97.8263 95.7323C98.689 95.4848 101.44 96.4747 102.267 96.7788L104.431 95.8666C105.664 95.4577 106.766 94.7251 107.62 93.7454C108.008 93.3706 108.503 92.9039 109.161 92.2958C110.087 91.4473 111.402 90.125 113.319 88.1452C113.372 88.0901 113.441 88.054 113.516 88.0425C113.592 88.031 113.669 88.0447 113.736 88.0816C114.832 88.6614 116.925 90.4291 118.594 95.7747C118.618 95.8506 118.615 95.9324 118.587 96.0068C118.559 96.0812 118.506 96.144 118.438 96.1848C114.606 98.398 107.125 102.435 106.658 102.662C106.516 102.732 105.809 103.312 105.131 103.871C103.186 105.462 101.524 106.791 100.81 107.032C100.403 107.185 99.9727 107.271 99.5375 107.286ZM94.9273 105.165C94.9738 105.154 95.0221 105.154 95.0687 105.165C95.0687 105.165 96.7516 105.872 97.897 106.233C98.7454 106.609 99.7038 106.654 100.584 106.36C101.227 106.148 103.412 104.38 104.678 103.326C105.205 102.86 105.76 102.425 106.34 102.025C106.771 101.813 113.941 97.9525 117.83 95.7111C116.366 91.1786 114.655 89.4745 113.63 88.8381C111.813 90.719 110.54 91.9847 109.635 92.812C108.977 93.4201 108.489 93.8868 108.1 94.2262C107.184 95.262 106.011 96.0376 104.699 96.4747L102.444 97.4929C102.359 97.525 102.266 97.525 102.182 97.4929C100.768 96.9555 98.5546 96.2697 98.0526 96.4111C97.6849 96.5171 97.2607 96.6727 96.8435 96.8283C96.4022 97.0072 95.9484 97.1537 95.4858 97.2667C95.0333 97.3586 92.6575 97.6697 91.9009 97.3657C91.7577 97.3489 91.6126 97.371 91.4808 97.4294C91.3489 97.4879 91.2352 97.5806 91.1514 97.698C91.0736 97.8606 91.3282 98.1859 92.0635 98.5323C93.2641 99.1394 94.6151 99.3851 95.9525 99.2394C96.0241 99.2255 96.0983 99.2335 96.1652 99.2626C96.2321 99.2916 96.2886 99.3403 96.3273 99.4021C96.3674 99.4616 96.3889 99.5318 96.3889 99.6036C96.3889 99.6754 96.3674 99.7456 96.3273 99.8051C96.3273 99.8051 93.902 102.839 92.9545 104.147C92.41 104.889 92.4737 105.151 92.4949 105.193C92.5161 105.236 92.6009 105.342 92.9686 105.398C93.6112 105.426 94.254 105.348 94.8707 105.165H94.9273Z" fill="#263238"/>
<path d="M107.011 43.7468L84.2926 72.3911L88.6412 74.081L111.728 44.5883L107.011 43.7468Z" fill="#263238"/>
<path d="M88.6413 74.4346C88.5991 74.4413 88.5561 74.4413 88.514 74.4346L84.1654 72.7375C84.1134 72.7182 84.0665 72.687 84.0285 72.6465C83.9905 72.6061 83.9623 72.5573 83.9462 72.5042C83.9328 72.4504 83.9322 72.3943 83.9444 72.3402C83.9567 72.2862 83.9816 72.2358 84.0169 72.1931L106.736 43.5489C106.775 43.4977 106.827 43.4582 106.887 43.4345C106.947 43.4108 107.012 43.4039 107.075 43.4145L111.791 44.263C111.851 44.2746 111.906 44.3007 111.953 44.3389C112 44.3772 112.037 44.4264 112.06 44.4822C112.081 44.54 112.087 44.6022 112.077 44.6628C112.067 44.7234 112.042 44.7805 112.004 44.8287L88.9241 74.3214C88.8875 74.359 88.8434 74.3885 88.7947 74.408C88.746 74.4275 88.6937 74.4366 88.6413 74.4346ZM84.8654 72.2355L88.5281 73.6497L111.084 44.8216L107.16 44.1145L84.8654 72.2355Z" fill="#263238"/>
<path d="M113.757 72.7451C113.72 72.7525 113.681 72.7525 113.644 72.7451L106.149 70.2066C106.061 70.1759 105.988 70.1125 105.946 70.0294C105.904 69.9464 105.895 69.8503 105.922 69.7612C105.955 69.6727 106.019 69.5999 106.104 69.5578C106.188 69.5157 106.285 69.5075 106.375 69.5349L112.831 71.7269L108.991 66.3318C108.938 66.2544 108.918 66.1595 108.933 66.0671C108.949 65.9747 109 65.8921 109.076 65.8368C109.114 65.8097 109.157 65.7903 109.203 65.7799C109.248 65.7695 109.295 65.7682 109.341 65.7761C109.387 65.784 109.431 65.8009 109.471 65.8259C109.51 65.8509 109.544 65.8834 109.571 65.9216L114.04 72.2077C114.084 72.2682 114.108 72.3413 114.108 72.4163C114.108 72.4913 114.084 72.5643 114.04 72.6249C114.005 72.6645 113.961 72.6958 113.912 72.7166C113.863 72.7374 113.81 72.7471 113.757 72.7451Z" fill="#263238"/>
<path d="M140.312 95.7955L79.8848 158.657C77.9974 160.62 76.6456 163.035 75.9586 165.67C75.2715 168.306 75.2724 171.074 75.9609 173.709C76.6495 176.344 78.0028 178.758 79.8913 180.72C81.7798 182.682 84.1404 184.127 86.747 184.916L174.536 211.562C177.297 212.4 180.233 212.472 183.032 211.77C185.831 211.068 188.386 209.618 190.424 207.575C192.462 205.533 193.906 202.975 194.602 200.175C195.299 197.375 195.221 194.438 194.376 191.679L167.02 102.143C166.207 99.4899 164.715 97.0956 162.691 95.1974C160.668 93.2992 158.183 91.9631 155.483 91.3216C152.784 90.6801 149.964 90.7554 147.302 91.5402C144.641 92.325 142.231 93.7919 140.312 95.7955Z" fill="#C2F33A"/>
<path d="M89.9093 178.936C88.3245 178.45 86.8844 177.58 85.7174 176.403C84.5503 175.226 83.6924 173.779 83.2201 172.19C82.7126 170.678 82.6229 169.057 82.9606 167.498C83.2984 165.939 84.0509 164.501 85.1388 163.334L145.727 100.28C146.82 99.1577 148.206 98.3653 149.728 97.9941C151.251 97.6229 152.846 97.6879 154.333 98.1816C155.919 98.6659 157.36 99.5356 158.527 100.713C159.694 101.89 160.552 103.338 161.022 104.928L188.423 194.681C188.931 196.193 189.02 197.814 188.683 199.372C188.345 200.931 187.592 202.37 186.505 203.536C185.414 204.662 184.027 205.457 182.504 205.83C180.982 206.203 179.385 206.139 177.897 205.645L89.9093 178.936Z" fill="white"/>
<path d="M146.055 122.62L151.648 124.313C153.394 124.858 154.879 126.026 155.819 127.596C156.758 129.165 157.087 131.025 156.743 132.822L155.134 140.213C155.081 140.481 155.007 140.746 154.915 141.004L147.168 162.808C146.623 164.309 145.514 165.538 144.077 166.234C142.639 166.929 140.987 167.036 139.472 166.531C137.859 166.026 136.464 164.99 135.515 163.591C134.566 162.192 134.119 160.514 134.245 158.828L136.407 135.342C136.432 135.07 136.476 134.801 136.539 134.536L138.14 127.134C138.32 126.293 138.675 125.499 139.183 124.805C139.691 124.11 140.34 123.531 141.087 123.105C141.834 122.679 142.663 122.415 143.519 122.331C144.375 122.248 145.24 122.346 146.055 122.62ZM137.403 172.591L138.923 173.049C140.485 173.537 141.814 174.583 142.656 175.987C143.497 177.391 143.793 179.056 143.486 180.664C143.328 181.42 143.011 182.133 142.557 182.758C142.102 183.383 141.521 183.905 140.851 184.289C140.181 184.674 139.437 184.912 138.669 184.989C137.9 185.065 137.124 184.979 136.391 184.734L134.873 184.266C133.311 183.781 131.982 182.737 131.14 181.335C130.298 179.932 130.002 178.269 130.308 176.662C130.465 175.905 130.781 175.19 131.235 174.564C131.689 173.939 132.27 173.416 132.941 173.032C133.611 172.647 134.356 172.409 135.125 172.333C135.894 172.257 136.67 172.345 137.403 172.591Z" fill="#C2F33A"/>
</svg>
