<svg width="250" height="261" viewBox="0 0 250 261" fill="none" xmlns="http://www.w3.org/2000/svg">
<path fill-rule="evenodd" clip-rule="evenodd" d="M108.555 26.2834C136.421 22.1691 165.64 27.7842 187.538 45.4861C211.688 65.0078 231.245 93.3933 229.938 124.404C228.663 154.661 203.468 176.447 181.156 196.945C160.133 216.259 137.093 234.818 108.555 235.919C79.067 237.057 48.043 226.198 30.1213 202.772C13.552 181.115 19.3421 151.385 23.2403 124.404C26.43 102.326 35.2685 82.6459 49.9098 65.807C65.9861 47.3178 84.3059 29.8638 108.555 26.2834Z" fill="#7ED5B3"/>
<g opacity="0.2">
<path d="M244.876 206.959L180.549 144.845L163.752 232.674L244.876 206.959Z" fill="#C2F33A"/>
<path d="M204.672 80.1273L187.873 167.95L123.548 105.843L204.672 80.1273Z" fill="#C2F33A"/>
</g>
<path d="M185.573 134.891L183.114 147.74C183.054 148.056 182.909 148.35 182.696 148.591C182.482 148.831 182.207 149.01 181.9 149.107C181.593 149.204 181.266 149.217 180.953 149.143C180.639 149.069 180.352 148.912 180.121 148.688L170.709 139.603C169.859 138.781 169.238 137.753 168.906 136.619C168.573 135.485 168.541 134.284 168.812 133.134C169.084 131.984 169.649 130.924 170.453 130.058C171.258 129.192 172.273 128.55 173.4 128.195L176.833 127.107C177.958 126.754 179.155 126.7 180.307 126.948C181.46 127.196 182.528 127.738 183.409 128.522C184.289 129.306 184.951 130.305 185.331 131.421C185.71 132.538 185.793 133.733 185.573 134.891Z" fill="#C2F33A"/>
<path d="M198.958 200.685L219.797 202.419C220.205 202.457 220.588 202.634 220.88 202.92C221.173 203.206 221.359 203.585 221.405 203.992C221.452 204.399 221.358 204.809 221.137 205.155C220.917 205.5 220.585 205.759 220.196 205.888L183.341 217.571C182.948 217.689 182.528 217.669 182.149 217.514C181.77 217.358 181.456 217.077 181.26 216.718C181.063 216.358 180.997 215.942 181.071 215.539C181.146 215.136 181.356 214.771 181.668 214.506L197.652 201.099C197.831 200.947 198.039 200.832 198.263 200.76C198.487 200.689 198.723 200.664 198.958 200.685Z" fill="#C2F33A"/>
<path d="M193.744 186.47C195.049 186.057 195.771 184.663 195.358 183.358C194.944 182.054 193.551 181.331 192.246 181.745C190.941 182.158 190.219 183.551 190.632 184.856C191.046 186.161 192.439 186.884 193.744 186.47Z" fill="#C2F33A"/>
<path d="M185.558 160.645C186.23 160.432 186.602 159.715 186.389 159.043C186.176 158.372 185.458 158 184.787 158.213C184.115 158.426 183.743 159.143 183.956 159.815C184.169 160.486 184.886 160.858 185.558 160.645Z" fill="#C2F33A"/>
<path d="M189.339 172.574C190.102 172.332 190.525 171.517 190.283 170.754C190.041 169.991 189.226 169.568 188.463 169.81C187.7 170.052 187.277 170.867 187.519 171.63C187.761 172.393 188.576 172.816 189.339 172.574Z" fill="#C2F33A"/>
<path d="M243.5 203.323L162.783 228.909C161.805 229.223 160.99 229.912 160.518 230.825C160.045 231.738 159.953 232.8 160.262 233.781C160.576 234.758 161.263 235.572 162.175 236.045C163.086 236.517 164.147 236.61 165.127 236.303L245.843 210.717C246.821 210.404 247.635 209.716 248.107 208.805C248.58 207.894 248.673 206.832 248.366 205.853C248.054 204.873 247.367 204.058 246.455 203.584C245.543 203.11 244.48 203.016 243.5 203.323Z" fill="#C2F33A"/>
<path d="M203.297 76.4979L122.581 102.084C121.604 102.398 120.79 103.085 120.317 103.996C119.844 104.908 119.751 105.969 120.058 106.949C120.372 107.926 121.059 108.74 121.971 109.213C122.882 109.685 123.943 109.778 124.923 109.472L205.639 83.8856C206.617 83.572 207.431 82.8846 207.903 81.9732C208.376 81.0619 208.469 80.0006 208.162 79.0209C207.849 78.0433 207.161 77.2294 206.25 76.7568C205.338 76.2841 204.277 76.1911 203.297 76.4979Z" fill="#C2F33A"/>
<path d="M193.71 49.9837L194.623 50.2108C194.235 51.7665 193.735 53.2922 193.128 54.776L192.254 54.4156C192.849 52.9764 193.335 51.495 193.71 49.9837Z" fill="#C2F33A"/>
<path d="M191.542 28.5411L192.43 28.0966C195.256 34.0215 196.236 40.6589 195.242 47.1474L194.31 47.0068C195.262 40.7133 194.298 34.2788 191.542 28.5411Z" fill="#C2F33A"/>
<path d="M142.344 21.9093C131.108 33.285 131.222 51.6151 142.598 62.8507C153.973 74.0863 172.304 73.9727 183.539 62.5969C194.775 51.2211 194.661 32.891 183.285 21.6554C171.91 10.4199 153.579 10.5335 142.344 21.9093Z" fill="#C2F33A"/>
<path opacity="0.6" d="M145.949 59.4579C141.936 55.4921 139.436 50.2482 138.882 44.6339C138.328 39.0195 139.754 33.3881 142.914 28.7144C146.074 24.0407 150.768 20.619 156.185 19.0414C161.602 17.4638 167.399 17.8297 172.575 20.0758C177.75 22.3219 181.977 26.3068 184.524 31.3407C187.071 36.3746 187.778 42.1407 186.522 47.6408C185.267 53.1409 182.127 58.0289 177.648 61.4587C173.169 64.8884 167.631 66.6441 161.994 66.4217C161.991 66.4293 161.987 66.4362 161.981 66.442C161.975 66.4478 161.968 66.4523 161.961 66.4551C155.937 66.2047 150.225 63.7085 145.949 59.4579Z" fill="white"/>
<path d="M145.949 59.4579C142.604 56.1547 140.295 51.9485 139.304 47.3537C138.312 42.7589 138.682 37.9748 140.366 33.5865C142.051 29.1982 144.978 25.3961 148.79 22.6452C152.601 19.8943 157.132 18.3138 161.827 18.0972C168.069 18.3263 173.979 20.9613 178.321 25.4502C182.663 29.9392 185.1 35.9341 185.122 42.1794C185.143 48.4248 182.748 54.4363 178.437 58.9551C174.126 63.4739 168.233 66.1495 161.994 66.4217C161.991 66.4293 161.987 66.4363 161.981 66.442C161.975 66.4478 161.968 66.4523 161.961 66.4552C155.937 66.2047 150.225 63.7085 145.949 59.4579Z" fill="white"/>
<path d="M161.938 41.2616C162.068 41.1296 162.222 41.0246 162.393 40.9527C162.564 40.8809 162.747 40.8436 162.933 40.8431L179.613 40.7397C179.802 40.7318 179.991 40.7622 180.168 40.829C180.345 40.8957 180.507 40.9975 180.645 41.1282C180.782 41.259 180.891 41.416 180.966 41.5899C181.041 41.7638 181.081 41.9511 181.082 42.1406C181.083 42.33 181.046 42.5178 180.973 42.6927C180.9 42.8675 180.793 43.0259 180.657 43.1583C180.522 43.2907 180.361 43.3945 180.184 43.4635C180.008 43.5324 179.819 43.5651 179.63 43.5596L164.36 43.6542L164.415 52.473C164.404 52.8384 164.252 53.1854 163.991 53.441C163.729 53.6965 163.379 53.8405 163.013 53.8428C162.648 53.8451 162.296 53.7054 162.031 53.4531C161.766 53.2009 161.61 52.8557 161.595 52.4905L161.532 42.2618C161.53 41.8879 161.676 41.5286 161.938 41.2616Z" fill="#263238"/>
<path d="M113.63 78.9128C111.994 82.9478 110.291 86.9828 108.589 90.999C106.886 95.0152 105.146 99.0408 103.604 102.963L103.5 103.226C103.482 103.269 103.466 103.313 103.453 103.358C103.412 103.481 103.381 103.607 103.359 103.734C103.307 104.083 103.282 104.435 103.284 104.788C103.298 105.684 103.389 106.578 103.557 107.459C103.947 109.452 104.471 111.416 105.128 113.337C105.777 115.331 106.538 117.325 107.328 119.319C108.119 121.313 108.974 123.317 109.821 125.254L106.303 127.333C103.641 123.657 101.317 119.747 99.3619 115.651C98.3342 113.531 97.4848 111.328 96.8224 109.067C96.4615 107.816 96.2128 106.535 96.0793 105.239C96.0131 104.498 96.0131 103.752 96.0793 103.01C96.1099 102.59 96.1664 102.172 96.2486 101.759C96.2486 101.533 96.3427 101.317 96.4085 101.091L96.5684 100.574C97.2456 98.373 97.9605 96.2755 98.7129 94.1875C99.4654 92.0994 100.237 90.0208 101.036 87.961C102.616 83.8319 104.29 79.7687 106.068 75.7336L113.63 78.9128Z" fill="#FFB573"/>
<path d="M109.36 124.248L112.652 126.994C113.059 127.334 113.391 127.754 113.629 128.228C113.867 128.702 114.004 129.219 114.033 129.748C114.063 130.278 113.982 130.807 113.798 131.304C113.614 131.801 113.33 132.255 112.962 132.638C112.491 133.131 111.897 133.491 111.242 133.681C110.586 133.871 109.892 133.885 109.23 133.72C108.567 133.556 107.96 133.22 107.469 132.746C106.979 132.272 106.622 131.676 106.435 131.02C106.002 129.588 105.737 128.111 105.645 126.618L109.36 124.248Z" fill="#FFB573"/>
<path d="M110 124.746C108.492 125.33 107.056 126.085 105.72 126.994C105.64 127.05 105.543 127.075 105.446 127.064C105.35 127.054 105.26 127.009 105.193 126.938C104.256 125.97 103.521 124.825 103.03 123.571C103.017 123.505 103.023 123.437 103.046 123.374C103.069 123.311 103.109 123.255 103.162 123.213C104.488 122.16 107.921 120.392 108.636 120.975C109.351 121.558 109.953 123.401 110.244 124.248C110.262 124.297 110.27 124.348 110.267 124.4C110.264 124.452 110.251 124.503 110.228 124.549C110.205 124.596 110.173 124.637 110.134 124.671C110.095 124.705 110.049 124.731 110 124.746Z" fill="#263238"/>
<path d="M63.2066 88.1677C56.2747 91.7795 53.5376 98.9184 53.3213 106.377C53.3213 107.769 55.4564 108.051 55.494 106.64C55.6821 100.056 57.8454 93.4161 64.0719 90.1805C65.3041 89.5316 64.4576 87.5188 63.2066 88.1677Z" fill="#C2F33A"/>
<g opacity="0.2">
<path d="M63.2066 88.1677C56.2747 91.7795 53.5376 98.9184 53.3213 106.377C53.3213 107.769 55.4564 108.051 55.494 106.64C55.6821 100.056 57.8454 93.4161 64.0719 90.1805C65.3041 89.5316 64.4576 87.5188 63.2066 88.1677Z" fill="black"/>
</g>
<path d="M80.8046 64.4845L97.3679 66.5161C100.685 66.9195 103.734 68.5434 105.92 71.0716C108.105 73.5997 109.271 76.851 109.191 80.1919V80.286C108.88 89.6916 106.444 108.362 104.601 117.57C104.526 117.937 104.422 118.388 104.3 118.896C103.513 122.069 101.592 124.843 98.8986 126.696C96.2057 128.548 92.9276 129.35 89.6835 128.951L66.5174 126.129C63.7563 125.806 61.1666 124.623 59.1143 122.748C57.062 120.873 55.6508 118.4 55.0802 115.679C55.0802 115.444 54.9955 115.228 54.9767 115.04C54.4782 110.224 55.3435 100.217 57.3469 95.8053C58.4568 93.341 63.4324 90.2183 64.5516 87.7541C66.2729 83.9918 64.5516 74.8213 66.5832 71.1907C67.2699 69.9868 69.4049 68.3126 71.3801 66.8736C74.113 64.9282 77.475 64.076 80.8046 64.4845Z" fill="#C2F33A"/>
<path opacity="0.5" d="M80.8046 64.4845L97.3679 66.5161C100.685 66.9195 103.734 68.5434 105.92 71.0716C108.105 73.5997 109.271 76.851 109.191 80.1919V80.286C108.88 89.6916 106.444 108.362 104.601 117.57C104.526 117.937 104.422 118.388 104.3 118.896C103.513 122.069 101.592 124.843 98.8986 126.696C96.2057 128.548 92.9276 129.35 89.6835 128.951L66.5174 126.129C63.7563 125.806 61.1666 124.623 59.1143 122.748C57.062 120.873 55.6508 118.4 55.0802 115.679C55.0802 115.444 54.9955 115.228 54.9767 115.04C54.4782 110.224 55.3435 100.217 57.3469 95.8053C58.4568 93.341 63.4324 90.2183 64.5516 87.7541C66.2729 83.9918 64.5516 74.8213 66.5832 71.1907C67.2699 69.9868 69.4049 68.3126 71.3801 66.8736C74.113 64.9282 77.475 64.076 80.8046 64.4845Z" fill="black"/>
<path d="M73.8726 66.5161C73.6981 66.2289 73.4678 65.9794 73.1954 65.7825C72.5647 66.0911 71.9579 66.4464 71.3801 66.8453C69.3579 68.2844 67.2699 69.9586 66.5833 71.1625C64.5328 74.7931 66.2729 83.9353 64.5516 87.7258C63.4324 90.1901 58.4568 93.3128 57.3469 95.777C55.3435 100.188 54.5252 110.196 54.9767 115.012C54.9767 115.2 55.0331 115.416 55.0802 115.651C55.5677 118.008 56.6916 120.186 58.3299 121.948C59.9682 123.711 62.0583 124.991 64.3729 125.649C64.8478 125.503 65.2957 125.281 65.6991 124.991C67.9095 123.241 75.9607 70.5135 73.8726 66.5161Z" fill="#C2F33A"/>
<path opacity="0.2" d="M73.8726 66.5161C73.6981 66.2289 73.4678 65.9794 73.1954 65.7825C72.5647 66.0911 71.9579 66.4464 71.3801 66.8453C69.3579 68.2844 67.2699 69.9586 66.5833 71.1625C64.5328 74.7931 66.2729 83.9353 64.5516 87.7258C63.4324 90.1901 58.4568 93.3128 57.3469 95.777C55.3435 100.188 54.5252 110.196 54.9767 115.012C54.9767 115.2 55.0331 115.416 55.0802 115.651C55.5677 118.008 56.6916 120.186 58.3299 121.948C59.9682 123.711 62.0583 124.991 64.3729 125.649C64.8478 125.503 65.2957 125.281 65.6991 124.991C67.9095 123.241 75.9607 70.5135 73.8726 66.5161Z" fill="black"/>
<path opacity="0.2" d="M55.5223 102.935C54.895 106.921 54.712 110.965 54.9768 114.993C54.9768 115.181 55.0332 115.397 55.0802 115.632C55.5677 117.989 56.6916 120.167 58.33 121.929C59.9683 123.692 62.0583 124.972 64.373 125.63C64.8478 125.484 65.2957 125.262 65.6992 124.972C66.5645 124.276 68.3704 115.519 70.0916 104.966C63.7146 106.631 57.6574 104.044 55.5223 102.935Z" fill="black"/>
<path d="M114.355 81.6686C116.969 73.8243 112.915 67.8047 106.83 70.6734C101.337 73.2506 94.5369 101.373 95.468 105.982C96.8977 112.989 102.55 122.404 102.55 122.404L108.307 119.639C108.307 119.639 103.519 108.738 103.999 104.59C104.479 100.442 111.871 89.1085 114.355 81.6686Z" fill="#C2F33A"/>
<path opacity="0.4" d="M114.355 81.6686C116.969 73.8243 112.915 67.8047 106.83 70.6734C101.337 73.2506 94.5369 101.373 95.468 105.982C96.8977 112.989 102.55 122.404 102.55 122.404L108.307 119.639C108.307 119.639 103.519 108.738 103.999 104.59C104.479 100.442 111.871 89.1085 114.355 81.6686Z" fill="white"/>
<path d="M109.981 69.9585C109.981 69.9585 115.098 89.8796 103.745 124.436L70.054 120.354C70.449 115.153 76.7602 90.3217 74.7568 65.3497C78.5673 65.0879 82.3905 65.0691 86.2034 65.2933C91.0044 65.6008 95.784 66.1818 100.519 67.0334C103.744 67.7621 106.907 68.74 109.981 69.9585Z" fill="#C2F33A"/>
<path d="M89.5424 49.3225C89.8904 54.0253 89.7587 62.5844 86.1658 65.2651C88.6957 66.7334 91.0661 68.4608 93.2388 70.4193C93.815 70.949 94.5246 71.3117 95.2915 71.4684C96.0583 71.6252 96.8533 71.57 97.5912 71.3089C98.329 71.0478 98.9818 70.5907 99.4794 69.9865C99.9769 69.3823 100.3 68.654 100.415 67.8798C100.456 67.59 100.478 67.2978 100.481 67.0051C95.4962 65.124 96.0887 61.3617 97.4243 57.891L89.5424 49.3225Z" fill="#FFB573"/>
<path opacity="0.2" d="M92.7685 52.8403L97.4713 57.9194C97.1537 58.7245 96.9052 59.5552 96.7283 60.4025C94.8472 59.8851 92.3641 57.4021 92.4017 55.314C92.3779 54.4743 92.502 53.637 92.7685 52.8403Z" fill="black"/>
<path d="M89.8528 42.3435C89.4766 48.6359 88.9123 52.2947 91.734 55.8782C95.8913 61.2676 103.961 59.3489 106.181 53.3011C108.203 47.8552 108.476 38.4966 102.663 35.2705C101.386 34.5471 99.9453 34.1632 98.4777 34.1552C97.0101 34.1472 95.565 34.5154 94.2802 35.2248C92.9955 35.9341 91.9139 36.9609 91.1388 38.2072C90.3638 39.4534 89.921 40.8775 89.8528 42.3435Z" fill="#FFB573"/>
<path d="M99.108 45.2405C99.0422 45.7484 99.2679 46.1811 99.5971 46.2281C99.9263 46.2752 100.246 45.8895 100.312 45.3816C100.378 44.8737 100.152 44.441 99.8228 44.394C99.4936 44.347 99.1644 44.7326 99.108 45.2405Z" fill="#263238"/>
<path d="M104.845 45.9366C104.789 46.4445 105.005 46.8772 105.334 46.9336C105.664 46.99 105.993 46.595 106.049 46.0871C106.106 45.5792 105.889 45.1465 105.56 45.0901C105.231 45.0337 104.911 45.4287 104.845 45.9366Z" fill="#263238"/>
<path d="M102.992 45.9648C103.404 47.5924 104.037 49.1558 104.874 50.6112C104.496 50.8157 104.078 50.9359 103.65 50.9635C103.221 50.9911 102.791 50.9255 102.391 50.7711L102.992 45.9648Z" fill="#ED893E"/>
<path d="M100.773 51.9938C100.81 51.9941 100.845 51.9809 100.873 51.9566C100.901 51.9323 100.919 51.8987 100.923 51.8621C100.926 51.8423 100.925 51.8222 100.919 51.803C100.914 51.7837 100.905 51.7657 100.893 51.7499C100.881 51.7342 100.865 51.721 100.848 51.7112C100.831 51.7014 100.811 51.6952 100.792 51.6928C100.158 51.6303 99.5482 51.4188 99.012 51.0755C98.4758 50.7322 98.0285 50.2669 97.7065 49.7177C97.6976 49.6994 97.6851 49.6832 97.6697 49.67C97.6543 49.6568 97.6364 49.6468 97.6171 49.6406C97.5978 49.6345 97.5774 49.6323 97.5572 49.6342C97.537 49.6361 97.5174 49.6421 97.4996 49.6518C97.4653 49.6699 97.4393 49.7006 97.427 49.7374C97.4148 49.7742 97.4172 49.8143 97.4338 49.8493C97.7747 50.4468 98.2543 50.9536 98.8321 51.3268C99.41 51.7001 100.069 51.9288 100.754 51.9938H100.773Z" fill="#263238"/>
<path d="M97.6407 43.1806C97.6812 43.1803 97.7213 43.1718 97.7585 43.1557C97.7956 43.1395 97.8292 43.116 97.857 43.0866C98.111 42.8076 98.4277 42.5931 98.781 42.4606C99.1342 42.3281 99.5139 42.2816 99.8886 42.3247C99.9672 42.3384 100.048 42.3203 100.113 42.2744C100.178 42.2286 100.223 42.1587 100.237 42.0802C100.251 42.003 100.234 41.9234 100.19 41.8584C100.146 41.7934 100.078 41.7481 100.002 41.7321C99.5281 41.6719 99.0471 41.7259 98.5987 41.8895C98.1504 42.0532 97.7477 42.3217 97.4244 42.6727C97.3687 42.7291 97.3374 42.8051 97.3374 42.8843C97.3374 42.9636 97.3687 43.0396 97.4244 43.096C97.4838 43.1495 97.5607 43.1796 97.6407 43.1806Z" fill="#263238"/>
<path d="M107.639 44.2718H107.733C107.77 44.2601 107.805 44.241 107.835 44.2155C107.865 44.1901 107.89 44.1589 107.907 44.1237C107.925 44.0886 107.935 44.0503 107.937 44.011C107.94 43.9718 107.934 43.9325 107.921 43.8955C107.774 43.4413 107.522 43.0281 107.186 42.6898C106.849 42.3514 106.437 42.0974 105.984 41.9486C105.905 41.9314 105.823 41.9453 105.755 41.9874C105.686 42.0295 105.637 42.0965 105.617 42.1743C105.607 42.212 105.605 42.2512 105.61 42.2898C105.616 42.3283 105.629 42.3653 105.649 42.3987C105.67 42.432 105.696 42.4609 105.728 42.4838C105.759 42.5066 105.795 42.5229 105.833 42.5317C106.191 42.6527 106.515 42.8562 106.78 43.1258C107.045 43.3954 107.242 43.7235 107.357 44.0836C107.378 44.1405 107.417 44.1892 107.468 44.2229C107.518 44.2567 107.578 44.2737 107.639 44.2718Z" fill="#263238"/>
<path d="M103.021 124.351C103.021 124.351 115.737 164.259 117.129 183.607C118.596 203.697 123.487 254.469 123.487 254.469L118.559 255.955C118.559 255.955 101.826 209.199 101.168 189.438C100.745 176.515 77.5785 121.313 77.5785 121.313L103.021 124.351Z" fill="#FFB573"/>
<path d="M123.948 250.265L117.468 253.218C117.353 253.271 117.26 253.361 117.203 253.474C117.147 253.587 117.131 253.715 117.157 253.839L118.352 259.482C118.383 259.619 118.445 259.747 118.533 259.857C118.62 259.966 118.731 260.055 118.857 260.117C118.984 260.178 119.122 260.21 119.262 260.211C119.403 260.212 119.542 260.181 119.669 260.122C121.917 259.049 122.951 258.41 125.801 257.112C127.56 256.312 133.805 253.679 136.223 252.578C138.64 251.478 137.869 248.929 136.777 249.164C131.887 250.227 127.052 250.81 125.049 250.18C124.684 250.071 124.292 250.101 123.948 250.265Z" fill="#263238"/>
<path d="M127.334 248.863L127.278 248.732C127.239 248.646 127.177 248.574 127.099 248.522C127.02 248.471 126.929 248.442 126.836 248.44C126.055 248.44 124.785 250.265 124.541 250.631C124.519 250.66 124.507 250.694 124.507 250.73C124.507 250.766 124.519 250.801 124.541 250.829C124.557 250.861 124.584 250.885 124.616 250.899C124.649 250.913 124.686 250.915 124.719 250.904C125.538 250.744 126.958 250.368 127.325 249.606C127.377 249.49 127.404 249.363 127.406 249.236C127.408 249.108 127.383 248.981 127.334 248.863ZM125.086 250.462C125.66 249.663 126.45 248.779 126.826 248.797C126.826 248.797 126.911 248.797 126.958 248.901C127.003 248.986 127.027 249.082 127.027 249.178C127.027 249.275 127.003 249.37 126.958 249.456C126.807 249.851 126.111 250.208 125.086 250.462Z" fill="#C2F33A"/>
<path d="M125.51 247.96C125.493 247.914 125.471 247.869 125.444 247.828C125.373 247.734 125.272 247.665 125.158 247.634C125.044 247.604 124.922 247.612 124.814 247.659C124.699 247.694 124.594 247.752 124.503 247.83C124.412 247.908 124.339 248.003 124.287 248.111C123.864 248.976 124.494 250.716 124.522 250.791C124.531 250.822 124.55 250.849 124.575 250.87C124.6 250.89 124.631 250.902 124.663 250.904C124.695 250.909 124.727 250.906 124.757 250.894C124.787 250.883 124.813 250.863 124.832 250.838C125.395 249.991 125.636 248.97 125.51 247.96ZM124.738 250.302C124.492 249.653 124.447 248.946 124.607 248.271C124.67 248.142 124.782 248.045 124.917 247.998C125.086 247.951 125.124 247.998 125.152 247.998C125.378 248.355 125.096 249.587 124.738 250.302Z" fill="#C2F33A"/>
<path d="M77.2023 121.398L103.745 124.436C103.745 124.436 115.756 165.332 117.947 178.594C119.894 190.398 122.773 233.306 123.375 242.552C123.41 243.06 123.279 243.566 123 243.992C122.722 244.418 122.312 244.742 121.832 244.913L116.621 246.794C116.322 246.902 116.004 246.949 115.687 246.931C115.369 246.913 115.058 246.831 114.773 246.689C114.489 246.547 114.235 246.35 114.029 246.107C113.823 245.865 113.668 245.583 113.574 245.28C110.827 236.288 101.158 204.139 100.538 193.859C99.8134 181.857 77.2023 121.398 77.2023 121.398Z" fill="#263238"/>
<path opacity="0.6" d="M84.0026 138.14C84.2471 139.476 84.5011 140.811 84.7456 142.137C85.9589 145.57 87.2475 149.22 88.5079 152.963C91.2261 145.871 90.9345 136.249 90.389 132.026C89.9187 128.537 86.2975 134.152 84.0026 138.14Z" fill="black"/>
<path d="M124.146 256.444L124.503 253.829L125.961 253.284L125.585 255.908L124.146 256.444Z" fill="white"/>
<path d="M126.563 255.532L127.052 252.249L128.632 251.581L128.087 254.864L126.563 255.532Z" fill="white"/>
<path d="M94.471 123.317C94.471 123.317 75.434 174.465 66.0283 191.075C55.9549 208.767 13.9587 176.139 13.9587 176.139L17.721 172.188C17.721 172.188 42.2979 182.883 52.0327 182.102C61.6077 164.231 70.0539 120.354 70.0539 120.354L94.471 123.317Z" fill="#FFB573"/>
<path d="M95.0824 123.392L70.054 120.354C70.054 120.354 58.946 163.62 53.9328 175.471C51.2427 181.829 41.3668 181.114 24.5213 174.38L19.7621 181.378C19.7621 181.378 46.982 200.593 59.9053 197.311C72.8287 194.028 95.0824 123.392 95.0824 123.392Z" fill="#263238"/>
<path d="M13.4885 177.531L18.9437 172.941C19.0404 172.86 19.1062 172.749 19.1302 172.626C19.1542 172.502 19.1349 172.374 19.0754 172.264L16.3948 167.147C16.3275 167.025 16.2341 166.92 16.1212 166.839C16.0084 166.758 15.879 166.703 15.7422 166.677C15.6055 166.652 15.4649 166.658 15.3305 166.693C15.1962 166.729 15.0714 166.794 14.9652 166.884C13.084 168.52 12.2563 169.404 9.8579 171.427C8.38121 172.668 3.07644 176.882 1.03542 178.594C-1.00561 180.306 0.433455 182.544 1.42105 182.027C5.83229 179.694 10.347 177.832 12.4162 177.898C12.8078 177.92 13.1925 177.788 13.4885 177.531Z" fill="#263238"/>
<path d="M10.601 179.788L10.695 179.901C10.756 179.971 10.8341 180.023 10.9216 180.052C11.0091 180.082 11.1029 180.088 11.1935 180.07C11.9648 179.892 12.689 177.757 12.8207 177.333C12.8345 177.301 12.8374 177.265 12.8289 177.231C12.8205 177.197 12.801 177.167 12.7737 177.145C12.744 177.127 12.7098 177.117 12.6749 177.117C12.64 177.117 12.6058 177.127 12.5761 177.145C11.8331 177.521 10.5633 178.264 10.4129 179.102C10.3832 179.346 10.4507 179.593 10.601 179.788ZM12.341 177.644C12.0024 178.584 11.4757 179.638 11.1183 179.722C11.0881 179.729 11.0565 179.726 11.0279 179.715C10.9993 179.703 10.975 179.683 10.9584 179.657C10.8847 179.592 10.8287 179.51 10.7958 179.418C10.7629 179.325 10.7541 179.226 10.7703 179.13C10.8455 178.707 11.4193 178.18 12.341 177.644Z" fill="#C2F33A"/>
<path d="M12.6043 180.164C12.6313 180.208 12.6664 180.246 12.7078 180.277C12.7997 180.351 12.9142 180.392 13.0322 180.392C13.1503 180.392 13.2648 180.351 13.3567 180.277C13.457 180.213 13.543 180.129 13.6093 180.03C13.6757 179.932 13.721 179.82 13.7424 179.703C13.9117 178.763 12.8018 177.249 12.8018 177.183C12.784 177.155 12.7584 177.133 12.7284 177.12C12.6983 177.106 12.665 177.102 12.6325 177.107C12.6011 177.112 12.5715 177.125 12.5467 177.145C12.5219 177.165 12.5028 177.191 12.4914 177.22C12.1719 178.183 12.212 179.229 12.6043 180.164ZM12.7172 177.7C13.1285 178.261 13.3612 178.933 13.385 179.628C13.3608 179.768 13.2832 179.893 13.1686 179.976C13.0181 180.07 12.9617 179.976 12.9335 179.976C12.612 179.262 12.536 178.462 12.7172 177.7Z" fill="#C2F33A"/>
<path d="M65.8497 153.669C69.6119 140.19 73.4212 126.129 74.8132 120.928L73.3554 120.749C71.9257 126.101 68.1917 139.974 64.4482 153.274L64.0438 154.741C60.2815 168.088 56.4158 181.895 51.666 183.466C42.6178 186.457 28.8479 180.258 22.6966 177.061L21.8219 178.293C26.8821 180.954 37.2001 185.723 46.1355 185.723C48.1539 185.75 50.1637 185.454 52.0892 184.848C57.5727 183.043 61.2033 170.11 65.4076 155.136L65.8497 153.669Z" fill="#C2F33A"/>
<path d="M13.0559 170.58L13.4791 173.185L12.2564 174.135L11.8331 171.521L13.0559 170.58Z" fill="white"/>
<path d="M11.0053 172.169L11.5133 175.443L10.2059 176.543L9.75439 173.251L11.0053 172.169Z" fill="white"/>
<path d="M77.0612 64.823C77.0612 64.823 102.127 72.3475 104.008 75.7524L105.993 73.9277C105.993 73.9277 99.55 69.8362 83.9837 64.823C83.9837 64.823 77.0612 63.2805 77.0612 64.823Z" fill="#263238"/>
<path d="M102.409 84.5842C102.409 84.5842 90.9063 100.969 68.6149 113.046C67.0718 113.883 65.9173 115.291 65.3982 116.968L65.2853 117.325C65.2262 117.511 65.2222 117.709 65.2736 117.897C65.325 118.084 65.4296 118.253 65.5749 118.382C65.7202 118.512 65.8999 118.596 66.0922 118.626C66.2845 118.655 66.4812 118.628 66.6585 118.548C71.8787 116.197 86.7584 108.155 104.751 86.5688L102.409 84.5842Z" fill="#263238"/>
<path d="M78.2556 71.6609C80.8422 74.586 83.5416 77.5582 86.241 80.4081C87.5766 81.8472 88.9592 83.2298 90.3324 84.5936C91.7057 85.9575 93.1541 87.2366 94.4897 88.3559C94.8377 88.6287 95.1763 88.8732 95.5055 89.1083L95.9758 89.4281L96.1827 89.5504L96.2862 89.6068C96.2862 89.6068 96.3709 89.6633 96.3426 89.6539C96.2337 89.6356 96.1224 89.6356 96.0135 89.6539C95.9194 89.7385 95.9006 89.6539 96.0135 89.6539C96.5423 89.4234 97.0142 89.0799 97.3961 88.6475C97.9882 88.0625 98.5352 87.4337 99.0327 86.7663C100.128 85.2384 101.136 83.6494 102.052 82.0071C102.522 81.1606 102.992 80.3047 103.453 79.4299L104.789 76.8246L108.664 78.0849C107.84 82.2919 106.425 86.3611 104.46 90.1712C103.915 91.2146 103.286 92.2117 102.579 93.1528C101.699 94.3082 100.608 95.2851 99.3619 96.0309C98.4998 96.5435 97.5374 96.8643 96.5402 96.9715C95.4184 97.0696 94.2899 96.8853 93.2576 96.4353C92.6419 96.155 92.0422 95.841 91.4611 95.4948C90.9438 95.175 90.4453 94.8552 89.975 94.5542C88.2052 93.2953 86.5094 91.9355 84.896 90.4816C83.3158 89.0801 81.8203 87.6599 80.3437 86.1832C77.4185 83.2392 74.7003 80.2482 71.9821 77.0503L78.2556 71.6609Z" fill="#FFB573"/>
<path d="M104.686 79.2324L102.503 75.3008C102.25 74.8409 102.098 74.3323 102.057 73.809C102.016 73.2857 102.086 72.7596 102.264 72.2657C102.442 71.7718 102.724 71.3215 103.089 70.9448C103.455 70.568 103.896 70.2735 104.385 70.0807C105.023 69.8219 105.718 69.7321 106.401 69.8202C107.085 69.9083 107.734 70.1712 108.286 70.5834C108.839 70.9957 109.275 71.5435 109.554 72.1738C109.833 72.8041 109.944 73.4956 109.877 74.1815C109.789 75.1304 109.642 76.0729 109.435 77.0032C109.337 77.4113 109.123 77.7825 108.82 78.0727C108.516 78.3628 108.136 78.5597 107.724 78.6398L104.686 79.2324Z" fill="#FFB573"/>
<path d="M69.5273 70.8332C70.9851 64.4938 78.3027 62.0107 82.2343 69.2154C87.3509 78.5741 96.0888 88.2807 96.0888 88.2807L103.021 79.2325L109.2 81.7249C109.2 81.7249 104.497 100.536 94.471 97.6299C84.4446 94.7235 68.0412 77.3043 69.5273 70.8332Z" fill="#C2F33A"/>
<path opacity="0.4" d="M69.5273 70.8332C70.9851 64.4938 78.3027 62.0107 82.2343 69.2154C87.3509 78.5741 96.0888 88.2807 96.0888 88.2807L103.021 79.2325L109.2 81.7249C109.2 81.7249 104.497 100.536 94.471 97.6299C84.4446 94.7235 68.0412 77.3043 69.5273 70.8332Z" fill="white"/>
<path d="M107.705 40.5659C109.632 40.5659 111.194 39.0036 111.194 37.0764C111.194 35.1492 109.632 33.5869 107.705 33.5869C105.777 33.5869 104.215 35.1492 104.215 37.0764C104.215 39.0036 105.777 40.5659 107.705 40.5659Z" fill="#263238"/>
<path d="M102.663 36.258C104.591 36.258 106.153 34.6957 106.153 32.7685C106.153 30.8413 104.591 29.2791 102.663 29.2791C100.736 29.2791 99.1738 30.8413 99.1738 32.7685C99.1738 34.6957 100.736 36.258 102.663 36.258Z" fill="#263238"/>
<path d="M96.2205 34.979C98.1476 34.979 99.7099 33.4167 99.7099 31.4895C99.7099 29.5623 98.1476 28 96.2205 28C94.2933 28 92.731 29.5623 92.731 31.4895C92.731 33.4167 94.2933 34.979 96.2205 34.979Z" fill="#263238"/>
<path d="M90.2667 37.7441C92.1939 37.7441 93.7562 36.1818 93.7562 34.2546C93.7562 32.3274 92.1939 30.7651 90.2667 30.7651C88.3395 30.7651 86.7772 32.3274 86.7772 34.2546C86.7772 36.1818 88.3395 37.7441 90.2667 37.7441Z" fill="#263238"/>
<path d="M91.2073 40.0205C91.2073 40.7107 91.0026 41.3853 90.6192 41.9592C90.2357 42.533 89.6908 42.9803 89.0531 43.2444C88.4155 43.5085 87.7139 43.5776 87.037 43.4429C86.3601 43.3083 85.7383 42.976 85.2503 42.4879C84.7623 41.9999 84.43 41.3782 84.2953 40.7013C84.1607 40.0244 84.2298 39.3228 84.4939 38.6851C84.758 38.0475 85.2053 37.5025 85.7791 37.1191C86.353 36.7357 87.0276 36.531 87.7178 36.531C88.176 36.531 88.6298 36.6213 89.0531 36.7966C89.4765 36.972 89.8612 37.229 90.1852 37.5531C90.5092 37.8771 90.7663 38.2618 90.9416 38.6851C91.117 39.1085 91.2073 39.5623 91.2073 40.0205Z" fill="#263238"/>
<path d="M90.1726 47.9869C89.6647 48.3165 89.068 48.4826 88.4628 48.4628C87.8576 48.443 87.273 48.2382 86.7878 47.8761C86.3025 47.514 85.9398 47.0119 85.7486 46.4374C85.5573 45.8629 85.5467 45.2436 85.7181 44.6629C85.8895 44.0821 86.2348 43.5679 86.7073 43.1893C87.1799 42.8107 87.7571 42.586 88.3612 42.5455C88.9653 42.5049 89.5674 42.6504 90.0863 42.9624C90.6052 43.2744 91.0161 43.7379 91.2636 44.2905C91.6034 44.9265 91.6795 45.6706 91.4753 46.3622C91.2712 47.0538 90.8033 47.6373 90.1726 47.9869Z" fill="#263238"/>
<path d="M87.7177 44.2717C87.7177 44.2717 86.7771 34.866 93.7561 32.3736C100.735 29.8811 106.971 36.2581 106.971 36.2581L107.46 38.6847L103.651 39.2961L97.3396 40.0203L93.3046 41.2713L89.2696 45.7013L87.7177 44.2717Z" fill="#263238"/>
<path d="M89.3073 45.7013C89.3073 45.7013 94.4145 40.7163 103.651 40.5564C104.665 40.512 105.669 40.7671 106.538 41.2901C106.588 41.3214 106.647 41.3363 106.706 41.3325C106.765 41.3288 106.821 41.3067 106.867 41.2693C106.913 41.2319 106.945 41.1812 106.961 41.1241C106.976 41.0671 106.973 41.0067 106.952 40.9515L105.833 37.7912C105.763 37.5854 105.639 37.4025 105.473 37.2617C105.307 37.1209 105.107 37.0276 104.892 36.9917C102.945 36.6813 97.2832 36.3803 90.0503 41.3653C89.8977 41.4719 89.7717 41.6122 89.682 41.7753C89.5923 41.9384 89.5413 42.1199 89.533 42.3059L89.3073 45.7013Z" fill="#C2F33A"/>
<path d="M89.4672 43.0491L89.4108 43.9896C92.7404 41.9204 100.81 37.528 106.397 39.4185L106.096 38.5626C100.453 37.0012 92.9943 40.8576 89.4672 43.0491Z" fill="white"/>
<path d="M86.2034 48.8806C86.5381 49.5906 87.0093 50.2277 87.5903 50.7555C88.1713 51.2832 88.8507 51.6912 89.5895 51.9563C91.5647 52.6523 92.6933 50.9122 92.2513 48.9747C91.8656 47.2252 90.3701 44.761 88.3197 44.902C87.874 44.9418 87.4453 45.0922 87.0724 45.3394C86.6994 45.5867 86.3941 45.9231 86.184 46.3181C85.9738 46.7132 85.8656 47.1544 85.869 47.6018C85.8724 48.0493 85.9873 48.4888 86.2034 48.8806Z" fill="#FFB573"/>
<path d="M99.4559 38.8448C98.9104 40.312 97.5748 41.1868 96.5684 40.8011C95.562 40.4155 95.1199 38.92 95.6278 37.4245C96.1357 35.929 97.509 35.0825 98.5154 35.4681C99.5218 35.8538 100.001 37.3681 99.4559 38.8448Z" fill="#263238"/>
<path d="M97.0669 37.5467C96.512 39.014 95.1858 39.8887 94.1794 39.5031C93.173 39.1174 92.7309 37.6219 93.2388 36.1358C93.7467 34.6498 95.1199 33.7844 96.1263 34.1795C97.1327 34.5745 97.6312 36.0794 97.0669 37.5467Z" fill="#263238"/>
</svg>
